<?xml version="1.0" encoding="UTF-8" standalone="no"?>
<!DOCTYPE svg PUBLIC "-//W3C//DTD SVG 1.1//EN" "http://www.w3.org/Graphics/SVG/1.1/DTD/svg11.dtd">
<svg xmlns="http://www.w3.org/2000/svg" version="1.1" viewBox="0.00 0.00 298.00 395.00">
<g stroke-width="2.00" fill="none" stroke-linecap="butt">
<path stroke="#baa46a" vector-effect="non-scaling-stroke" d="
  M 137.39 0.31
  Q 138.00 2.13 137.44 3.44"
/>
<path stroke="#d3be7e" vector-effect="non-scaling-stroke" d="
  M 137.44 3.44
  Q 137.71 1.42 136.79 0.78
  A 0.63 0.62 -23.8 0 0 136.55 0.69
  L 133.46 0.34"
/>
<path stroke="#baa46a" vector-effect="non-scaling-stroke" d="
  M 152.72 11.33
  Q 155.79 23.47 160.61 35.11"
/>
<path stroke="#5d7178" vector-effect="non-scaling-stroke" d="
  M 160.61 35.11
  Q 156.43 39.98 149.95 40.42"
/>
<path stroke="#967e4e" vector-effect="non-scaling-stroke" d="
  M 149.95 40.42
  C 145.42 30.91 142.54 20.77 139.23 10.82
  Q 138.65 9.06 136.94 5.98"
/>
<path stroke="#c4ae72" vector-effect="non-scaling-stroke" d="
  M 136.94 5.98
  L 137.44 3.44"
/>
<path stroke="#baa46a" vector-effect="non-scaling-stroke" d="
  M 199.62 7.01
  Q 195.54 18.52 187.99 28.30"
/>
<path stroke="#6c8184" vector-effect="non-scaling-stroke" d="
  M 187.99 28.30
  Q 177.87 25.41 167.41 24.51
  A 0.75 0.73 -76.0 0 0 166.66 24.97
  L 166.34 25.72"
/>
<path stroke="#d3be7e" vector-effect="non-scaling-stroke" d="
  M 166.34 25.72
  Q 166.27 24.91 166.49 24.01
  A 2.66 2.59 46.7 0 0 166.51 22.90
  L 162.36 2.46
  A 0.90 0.90 0.0 0 0 161.70 1.76
  Q 161.45 1.70 161.22 1.73"
/>
<path stroke="#af9862" vector-effect="non-scaling-stroke" d="
  M 136.94 5.98
  L 132.66 24.37"
/>
<path stroke="#768b8c" vector-effect="non-scaling-stroke" d="
  M 132.66 24.37
  C 116.80 26.06 102.08 30.80 87.72 37.31"
/>
<path stroke="#e6d28c" vector-effect="non-scaling-stroke" d="
  M 87.72 37.31
  C 95.09 28.00 101.47 18.17 102.99 6.09"
/>
<path stroke="#768b8c" vector-effect="non-scaling-stroke" d="
  M 166.34 25.72
  L 165.01 28.52"
/>
<path stroke="#d3be7e" vector-effect="non-scaling-stroke" d="
  M 165.01 28.52
  Q 158.91 18.87 158.23 7.14"
/>
<path stroke="#485b68" vector-effect="non-scaling-stroke" d="
  M 149.95 40.42
  Q 143.13 40.12 138.67 34.84
  Q 134.75 30.20 132.66 24.37"
/>
<path stroke="#7e9492" vector-effect="non-scaling-stroke" d="
  M 87.72 37.31
  Q 72.88 44.04 58.08 53.58"
/>
<path stroke="#e6ce7e" vector-effect="non-scaling-stroke" d="
  M 58.08 53.58
  L 45.37 33.82"
/>
<path stroke="#967e4e" vector-effect="non-scaling-stroke" d="
  M 252.78 32.65
  Q 254.21 35.52 249.44 41.90"
/>
<path stroke="#8f7749" vector-effect="non-scaling-stroke" d="
  M 249.44 41.90
  L 241.78 53.61"
/>
<path stroke="#5d7178" vector-effect="non-scaling-stroke" d="
  M 241.78 53.61
  Q 216.58 36.96 187.99 28.30"
/>
<path stroke="#6c8184" vector-effect="non-scaling-stroke" d="
  M 165.01 28.52
  Q 163.58 31.85 160.61 35.11"
/>
<path stroke="#415363" vector-effect="non-scaling-stroke" d="
  M 241.78 53.61
  Q 246.51 60.10 253.77 64.06"
/>
<path stroke="#485b68" vector-effect="non-scaling-stroke" d="
  M 253.77 64.06
  Q 260.33 67.65 267.73 69.14"
/>
<path stroke="#5d7178" vector-effect="non-scaling-stroke" d="
  M 267.73 69.14
  L 278.03 70.51"
/>
<path stroke="#485b68" vector-effect="non-scaling-stroke" d="
  M 278.03 70.51
  Q 279.72 69.98 279.89 71.96
  Q 284.99 132.15 275.35 191.74"
/>
<path stroke="#415363" vector-effect="non-scaling-stroke" d="
  M 275.35 191.74
  C 264.99 253.48 239.51 316.80 186.00 353.73"
/>
<path stroke="#485b68" vector-effect="non-scaling-stroke" d="
  M 186.00 353.73
  L 185.09 354.27"
/>
<path stroke="#415363" vector-effect="non-scaling-stroke" d="
  M 185.09 354.27
  Q 184.05 354.63 183.36 355.41"
/>
<path stroke="#485b68" vector-effect="non-scaling-stroke" d="
  M 183.36 355.41
  L 175.10 360.54"
/>
<path stroke="#415363" vector-effect="non-scaling-stroke" d="
  M 175.10 360.54
  Q 174.19 360.83 173.64 361.35"
/>
<path stroke="#485b68" vector-effect="non-scaling-stroke" d="
  M 173.64 361.35
  L 170.81 363.04"
/>
<path stroke="#415363" vector-effect="non-scaling-stroke" d="
  M 170.81 363.04
  Q 170.05 363.06 169.82 363.60"
/>
<path stroke="#485b68" vector-effect="non-scaling-stroke" d="
  M 169.82 363.60
  Q 159.98 368.90 149.98 372.63"
/>
<path stroke="#5b6c5f" vector-effect="non-scaling-stroke" d="
  M 149.98 372.63
  Q 129.47 364.55 111.97 352.18"
/>
<path stroke="#637567" vector-effect="non-scaling-stroke" d="
  M 111.97 352.18
  Q 101.93 345.05 92.98 336.63"
/>
<path stroke="#6b7e70" vector-effect="non-scaling-stroke" d="
  M 92.98 336.63
  Q 75.14 319.26 62.07 297.94"
/>
<path stroke="#76877e" vector-effect="non-scaling-stroke" d="
  M 62.07 297.94
  Q 50.47 278.89 42.40 257.97"
/>
<path stroke="#768b8c" vector-effect="non-scaling-stroke" d="
  M 42.40 257.97
  C 30.87 228.37 24.03 196.34 20.90 164.81"
/>
<path stroke="#7e9492" vector-effect="non-scaling-stroke" d="
  M 20.90 164.81
  Q 15.84 118.02 20.03 70.49"
/>
<path stroke="#637567" vector-effect="non-scaling-stroke" d="
  M 20.03 70.49
  L 27.10 70.15"
/>
<path stroke="#6b7e70" vector-effect="non-scaling-stroke" d="
  M 27.10 70.15
  Q 35.51 69.24 43.13 65.67"
/>
<path stroke="#76877e" vector-effect="non-scaling-stroke" d="
  M 43.13 65.67
  Q 49.53 62.75 54.03 58.27
  Q 56.09 56.22 58.08 53.58"
/>
<path stroke="#76877e" vector-effect="non-scaling-stroke" d="
  M 139.32 51.41
  L 139.32 65.61
  A 0.75 0.75 0.0 0 0 140.07 66.36
  L 141.86 66.36
  A 0.66 0.65 -90.0 0 0 142.51 65.70
  L 142.51 61.51
  A 0.80 0.80 0.0 0 1 143.44 60.72
  C 146.50 61.21 148.63 60.08 148.35 56.59
  Q 148.09 53.30 148.03 52.55
  A 2.62 2.62 0.0 0 0 145.42 50.14
  L 140.58 50.14
  A 1.27 1.26 -90.0 0 0 139.32 51.41"
/>
<path stroke="#76877e" vector-effect="non-scaling-stroke" d="
  M 156.31 53.77
  Q 156.87 54.62 158.74 54.13
  A 0.82 0.80 81.3 0 0 159.35 53.29
  C 159.11 49.29 155.30 49.88 152.58 50.03
  A 2.72 2.72 0.0 0 0 150.02 52.72
  L 149.94 63.22
  A 2.88 2.88 0.0 0 0 152.79 66.12
  L 156.26 66.15
  A 2.90 2.90 0.0 0 0 159.19 63.27
  L 159.23 57.25
  A 0.68 0.68 0.0 0 0 158.55 56.57
  L 154.96 56.53
  A 0.80 0.80 0.0 0 0 154.15 57.32
  L 154.14 58.85
  A 0.73 0.73 0.0 0 0 154.87 59.59
  L 155.60 59.59
  A 0.65 0.65 0.0 0 1 156.25 60.25
  L 156.23 62.38
  A 0.76 0.75 0.3 0 1 155.46 63.14
  L 153.66 63.13
  A 0.68 0.66 89.4 0 1 152.99 62.47
  Q 152.97 60.90 152.98 54.29
  A 1.89 1.62 31.9 0 1 156.31 53.77"
/>
<path stroke="#76877e" vector-effect="non-scaling-stroke" d="
  M 169.86 66.54
  L 168.40 60.70
  A 0.66 0.64 -24.3 0 1 168.67 60.00
  Q 170.35 58.89 170.48 57.79
  Q 170.72 55.84 170.76 53.48
  A 2.67 2.67 0.0 0 0 168.32 50.76
  L 163.53 50.36
  A 1.59 1.59 0.0 0 0 161.81 51.81
  L 160.65 65.66
  A 0.71 0.71 0.0 0 0 161.29 66.42
  L 162.74 66.54
  A 0.87 0.86 -85.1 0 0 163.68 65.74
  Q 163.86 63.64 164.08 60.64
  Q 164.12 60.16 164.72 60.14
  Q 164.83 60.14 164.98 60.24
  A 0.55 0.53 9.8 0 1 165.20 60.55
  L 166.72 66.21
  A 1.03 1.03 0.0 0 0 167.64 66.96
  L 169.37 67.11
  A 0.46 0.46 0.0 0 0 169.86 66.54"
/>
<path stroke="#76877e" vector-effect="non-scaling-stroke" d="
  M 125.99 57.47
  L 125.68 55.50
  A 0.71 0.71 0.0 0 1 126.10 54.73
  Q 127.78 54.01 128.78 54.99
  A 1.77 1.52 28.0 0 0 131.67 54.34
  Q 131.87 52.56 129.39 51.34
  A 1.15 1.15 0.0 0 0 128.68 51.23
  L 124.85 51.85
  A 2.74 2.74 0.0 0 0 122.57 54.99
  L 123.23 59.12
  A 2.58 2.57 80.8 0 0 126.17 61.26
  L 128.67 60.85
  A 0.62 0.62 0.0 0 1 129.38 61.36
  L 129.74 63.62
  A 0.73 0.73 0.0 0 1 129.20 64.44
  Q 127.45 64.87 126.58 64.05
  A 1.75 1.45 28.2 0 0 123.77 64.63
  Q 123.53 66.79 126.13 67.65
  A 3.03 2.95 53.1 0 0 127.03 67.79
  C 128.89 67.79 132.97 67.29 132.78 64.64
  Q 132.58 61.77 132.23 59.80
  A 1.64 1.60 -70.7 0 0 131.87 59.03
  Q 130.35 57.25 127.05 58.15
  A 0.86 0.85 -12.0 0 1 125.99 57.47"
/>
<path stroke="#76877e" vector-effect="non-scaling-stroke" d="
  M 176.5812 52.2871
  A 0.56 0.56 0.0 0 0 176.1002 51.6579
  L 174.1971 51.4040
  A 0.56 0.56 0.0 0 0 173.5679 51.8850
  L 171.5788 66.7929
  A 0.56 0.56 0.0 0 0 172.0598 67.4221
  L 173.9629 67.6760
  A 0.56 0.56 0.0 0 0 174.5921 67.1950
  L 176.5812 52.2871"
/>
<path stroke="#76877e" vector-effect="non-scaling-stroke" d="
  M 117.24 65.73
  Q 117.94 65.59 118.09 65.56
  A 0.85 0.84 -16.3 0 1 119.03 66.06
  L 119.90 68.14
  A 0.82 0.81 -14.0 0 0 120.74 68.64
  L 122.36 68.45
  A 0.67 0.67 0.0 0 0 122.90 67.52
  L 117.09 53.74
  A 0.81 0.81 0.0 0 0 116.24 53.25
  Q 115.56 53.34 114.74 53.51
  Q 113.91 53.68 113.25 53.87
  A 0.81 0.81 0.0 0 0 112.66 54.65
  L 112.75 69.60
  A 0.67 0.67 0.0 0 0 113.61 70.24
  L 115.17 69.78
  A 0.82 0.81 -9.2 0 0 115.75 68.99
  L 115.74 66.74
  A 0.85 0.84 -6.9 0 1 116.40 65.90
  Q 116.55 65.87 117.24 65.73"
/>
<path stroke="#76877e" vector-effect="non-scaling-stroke" d="
  M 186.02 59.22
  L 186.35 57.26
  A 0.71 0.71 0.0 0 1 186.99 56.66
  Q 188.80 56.51 189.45 57.75
  A 1.77 1.52 46.3 0 0 192.39 58.04
  Q 193.15 56.42 191.17 54.48
  A 1.15 1.15 0.0 0 0 190.54 54.15
  L 186.71 53.54
  A 2.74 2.74 0.0 0 0 183.56 55.80
  L 182.88 59.92
  A 2.58 2.57 -80.8 0 0 185.00 62.87
  L 187.50 63.28
  A 0.62 0.62 0.0 0 1 188.01 63.98
  L 187.64 66.24
  A 0.73 0.73 0.0 0 1 186.87 66.84
  Q 185.07 66.70 184.51 65.65
  A 1.75 1.45 46.6 0 0 181.66 65.31
  Q 180.76 67.29 182.95 68.92
  A 3.03 2.95 71.5 0 0 183.76 69.34
  C 185.52 69.92 189.55 70.73 190.20 68.16
  Q 190.92 65.37 191.20 63.39
  A 1.64 1.59 -52.3 0 0 191.11 62.56
  Q 190.23 60.39 186.81 60.20
  A 0.86 0.85 6.3 0 1 186.02 59.22"
/>
<path stroke="#76877e" vector-effect="non-scaling-stroke" d="
  M 106.00 55.38
  Q 103.01 56.10 102.43 56.26
  A 0.79 0.79 0.0 0 0 101.86 57.18
  L 102.13 58.48
  A 0.87 0.87 0.0 0 0 103.15 59.16
  L 104.87 58.81
  A 0.61 0.61 0.0 0 1 105.59 59.29
  L 107.93 70.79
  A 0.70 0.70 0.0 0 0 108.77 71.33
  Q 109.19 71.24 109.77 71.10
  Q 110.35 70.96 110.77 70.85
  A 0.70 0.70 0.0 0 0 111.27 69.99
  L 108.14 58.68
  A 0.61 0.61 0.0 0 1 108.56 57.92
  L 110.25 57.46
  A 0.87 0.87 0.0 0 0 110.85 56.39
  L 110.50 55.11
  A 0.79 0.79 0.0 0 0 109.58 54.54
  Q 108.99 54.66 106.00 55.38"
/>
<path stroke="#76877e" vector-effect="non-scaling-stroke" d="
  M 193.06 63.06
  Q 191.47 69.47 191.25 70.33
  A 0.32 0.32 0.0 0 0 191.47 70.71
  L 197.85 72.80
  A 0.67 0.66 -71.9 0 0 198.68 72.37
  L 199.22 70.69
  A 0.70 0.69 18.2 0 0 198.78 69.81
  L 195.37 68.69
  A 0.73 0.73 0.0 0 1 194.92 67.78
  L 195.54 65.84
  A 0.65 0.65 0.0 0 1 196.32 65.42
  L 198.81 66.09
  A 0.78 0.78 0.0 0 0 199.67 65.73
  Q 199.77 65.58 199.96 64.78
  Q 200.17 63.95 200.16 63.78
  A 0.78 0.78 0.0 0 0 199.56 63.06
  L 197.05 62.49
  A 0.65 0.65 0.0 0 1 196.55 61.75
  L 196.90 59.75
  A 0.73 0.73 0.0 0 1 197.74 59.15
  L 201.27 59.75
  A 0.70 0.69 9.6 0 0 202.07 59.18
  L 202.37 57.44
  A 0.67 0.66 -80.3 0 0 201.84 56.68
  L 195.23 55.54
  A 0.32 0.32 0.0 0 0 194.86 55.78
  Q 194.64 56.64 193.06 63.06"
/>
<path stroke="#76877e" vector-effect="non-scaling-stroke" d="
  M 99.8331 57.4897
  A 0.55 0.55 0.0 0 0 99.1534 57.1114
  L 97.2684 57.6484
  A 0.55 0.55 0.0 0 0 96.8901 58.3280
  L 101.0269 72.8503
  A 0.55 0.55 0.0 0 0 101.7066 73.2286
  L 103.5916 72.6916
  A 0.55 0.55 0.0 0 0 103.9699 72.0120
  L 99.8331 57.4897"
/>
<path stroke="#76877e" vector-effect="non-scaling-stroke" d="
  M 206.62 70.99
  Q 207.01 71.12 207.26 70.76
  Q 208.62 68.82 210.07 67.94
  A 0.08 0.08 0.0 0 1 210.19 68.03
  L 208.05 75.22
  A 0.58 0.57 -73.6 0 0 208.44 75.94
  L 210.17 76.46
  A 0.75 0.75 0.0 0 0 211.10 75.96
  L 215.33 61.78
  A 0.64 0.63 -74.1 0 0 214.89 60.98
  L 213.45 60.58
  A 1.16 1.15 -60.8 0 0 212.29 60.91
  Q 212.25 60.94 209.37 64.11
  C 209.29 64.20 209.03 64.20 208.90 64.16
  C 208.76 64.11 208.55 63.95 208.54 63.83
  Q 208.13 59.57 208.12 59.52
  A 1.16 1.15 -82.4 0 0 207.39 58.57
  L 205.99 58.02
  A 0.64 0.63 -69.2 0 0 205.16 58.40
  L 200.07 72.29
  A 0.75 0.75 0.0 0 0 200.51 73.25
  L 202.21 73.87
  A 0.58 0.57 -69.7 0 0 202.95 73.53
  L 205.54 66.49
  A 0.08 0.08 0.0 0 1 205.69 66.49
  Q 206.33 68.06 206.26 70.43
  Q 206.24 70.87 206.62 70.99"
/>
<path stroke="#76877e" vector-effect="non-scaling-stroke" d="
  M 90.97 65.70
  L 90.28 63.83
  A 0.71 0.71 0.0 0 1 90.54 62.99
  Q 92.04 61.96 93.22 62.72
  A 1.77 1.53 16.5 0 0 95.92 61.51
  Q 95.77 59.72 93.09 59.02
  A 1.15 1.15 0.0 0 0 92.38 59.05
  L 88.74 60.42
  A 2.74 2.74 0.0 0 0 87.13 63.95
  L 88.59 67.87
  A 2.58 2.57 69.4 0 0 91.90 69.38
  L 94.27 68.49
  A 0.62 0.62 0.0 0 1 95.07 68.85
  L 95.87 70.99
  A 0.73 0.73 0.0 0 1 95.50 71.90
  Q 93.87 72.67 92.86 72.04
  A 1.75 1.45 16.8 0 0 90.21 73.16
  Q 90.41 75.33 93.13 75.66
  A 3.03 2.95 41.7 0 0 94.04 75.62
  C 95.86 75.25 99.76 73.95 99.05 71.39
  Q 98.29 68.61 97.55 66.75
  A 1.64 1.60 -82.1 0 0 97.05 66.07
  Q 95.21 64.62 92.15 66.16
  A 0.86 0.85 -23.5 0 1 90.97 65.70"
/>
<path stroke="#76877e" vector-effect="non-scaling-stroke" d="
  M 89.48 76.50
  L 85.66 71.85
  A 0.66 0.64 -49.6 0 1 85.61 71.10
  Q 86.65 69.38 86.30 68.33
  Q 85.68 66.47 84.71 64.32
  A 2.67 2.66 -22.3 0 0 81.34 62.91
  L 76.85 64.59
  A 1.59 1.59 0.0 0 0 75.92 66.64
  L 80.78 79.64
  A 0.71 0.71 0.0 0 0 81.69 80.05
  L 83.05 79.54
  A 0.87 0.86 69.6 0 0 83.56 78.42
  Q 82.82 76.45 81.74 73.64
  Q 81.57 73.19 82.10 72.92
  Q 82.20 72.87 82.38 72.90
  A 0.55 0.53 -15.6 0 1 82.71 73.08
  L 86.50 77.54
  A 1.03 1.03 0.0 0 0 87.65 77.83
  L 89.28 77.22
  A 0.46 0.46 0.0 0 0 89.48 76.50"
/>
<path stroke="#76877e" vector-effect="non-scaling-stroke" d="
  M 218.26 75.70
  Q 218.91 75.97 219.05 76.03
  A 0.86 0.85 17.8 0 1 219.55 76.98
  L 219.11 79.21
  A 0.83 0.82 20.1 0 0 219.53 80.10
  L 220.99 80.85
  A 0.68 0.67 19.3 0 0 221.97 80.38
  L 224.89 65.60
  A 0.82 0.81 19.1 0 0 224.46 64.71
  Q 223.84 64.39 223.06 64.07
  Q 222.28 63.75 221.62 63.53
  A 0.82 0.81 25.8 0 0 220.68 63.86
  L 212.31 76.39
  A 0.68 0.67 25.6 0 0 212.67 77.42
  L 214.23 77.91
  A 0.83 0.82 24.8 0 0 215.16 77.57
  L 216.42 75.69
  A 0.86 0.85 27.2 0 1 217.45 75.36
  Q 217.59 75.42 218.26 75.70"
/>
<path stroke="#76877e" vector-effect="non-scaling-stroke" d="
  M 69.24 76.67
  Q 71.99 82.67 72.36 83.48
  A 0.32 0.32 0.0 0 0 72.77 83.64
  L 79.05 81.29
  A 0.66 0.66 0.0 0 0 79.43 80.44
  L 78.81 78.79
  A 0.70 0.69 -20.4 0 0 77.91 78.38
  L 74.56 79.63
  A 0.72 0.72 0.0 0 1 73.63 79.20
  L 72.91 77.30
  A 0.65 0.65 0.0 0 1 73.26 76.48
  L 75.62 75.45
  A 0.78 0.77 -16.1 0 0 76.07 74.64
  Q 76.05 74.46 75.70 73.71
  Q 75.35 72.94 75.23 72.81
  A 0.78 0.77 -33.3 0 0 74.32 72.62
  L 72.00 73.74
  A 0.65 0.65 0.0 0 1 71.15 73.47
  L 70.18 71.69
  A 0.72 0.72 0.0 0 1 70.46 70.70
  L 73.59 68.98
  A 0.70 0.69 -29.0 0 0 73.86 68.03
  L 73.01 66.48
  A 0.66 0.66 0.0 0 0 72.12 66.22
  L 66.25 69.45
  A 0.32 0.32 0.0 0 0 66.11 69.87
  Q 66.48 70.67 69.24 76.67"
/>
<path stroke="#76877e" vector-effect="non-scaling-stroke" d="
  M 231.78 84.78
  L 232.32 78.80
  A 0.66 0.64 -5.0 0 1 232.81 78.24
  Q 234.75 77.74 235.24 76.75
  Q 236.10 75.00 236.92 72.79
  A 2.66 2.66 0.0 0 0 235.51 69.43
  L 231.15 67.48
  A 1.59 1.59 0.0 0 0 229.05 68.28
  L 223.40 80.92
  A 0.70 0.70 0.0 0 0 223.76 81.85
  L 225.08 82.44
  A 0.86 0.86 0.0 0 0 226.23 82.00
  Q 227.08 80.08 228.28 77.33
  Q 228.48 76.89 229.04 77.07
  Q 229.15 77.11 229.26 77.25
  A 0.55 0.53 29.0 0 1 229.36 77.61
  L 228.93 83.43
  A 1.03 1.02 13.9 0 0 229.55 84.44
  L 231.13 85.15
  A 0.46 0.46 0.0 0 0 231.78 84.78"
/>
<path stroke="#76877e" vector-effect="non-scaling-stroke" d="
  M 63.30 80.03
  Q 63.17 80.09 58.05 73.83
  A 0.96 0.96 0.0 0 0 56.83 73.61
  L 55.53 74.36
  A 0.64 0.64 0.0 0 0 55.36 75.32
  L 64.88 86.92
  A 0.86 0.85 -30.4 0 0 65.88 87.17
  Q 66.22 87.03 66.69 86.79
  Q 67.16 86.56 67.48 86.37
  A 0.86 0.85 -22.8 0 0 67.88 85.41
  L 64.27 70.85
  A 0.64 0.64 0.0 0 0 63.40 70.41
  L 62.02 71.01
  A 0.96 0.96 0.0 0 0 61.47 72.12
  Q 63.43 79.96 63.30 80.03"
/>
<path stroke="#76877e" vector-effect="non-scaling-stroke" d="
  M 239.56 85.34
  Q 240.18 85.67 240.31 85.74
  A 0.85 0.84 23.2 0 1 240.71 86.73
  L 240.07 88.88
  A 0.82 0.81 25.5 0 0 240.40 89.80
  L 241.76 90.68
  A 0.67 0.67 0.0 0 0 242.77 90.31
  L 247.04 76.02
  A 0.81 0.81 0.0 0 0 246.70 75.10
  Q 246.11 74.73 245.38 74.34
  Q 244.64 73.95 244.01 73.68
  A 0.81 0.81 0.0 0 0 243.05 73.91
  L 233.63 85.47
  A 0.67 0.67 0.0 0 0 233.89 86.51
  L 235.38 87.14
  A 0.82 0.81 30.3 0 0 236.33 86.90
  L 237.75 85.16
  A 0.85 0.84 32.6 0 1 238.79 84.94
  Q 238.92 85.01 239.56 85.34"
/>
<path stroke="#76877e" vector-effect="non-scaling-stroke" d="
  M 53.4807 76.0476
  A 0.60 0.60 0.0 0 0 52.6671 75.8066
  L 51.0325 76.6941
  A 0.60 0.60 0.0 0 0 50.7915 77.5077
  L 57.9393 90.6724
  A 0.60 0.60 0.0 0 0 58.7529 90.9134
  L 60.3875 90.0259
  A 0.60 0.60 0.0 0 0 60.6285 89.2123
  L 53.4807 76.0476"
/>
<path stroke="#76877e" vector-effect="non-scaling-stroke" d="
  M 47.90 88.33
  L 53.59 92.97
  A 0.99 0.99 0.0 0 0 54.71 93.06
  L 56.27 92.16
  A 0.74 0.74 0.0 0 0 56.54 91.15
  L 49.19 78.42
  A 0.73 0.73 0.0 0 0 48.18 78.15
  L 46.84 78.92
  A 0.74 0.73 60.5 0 0 46.57 79.92
  L 49.94 85.74
  A 0.19 0.19 0.0 0 1 49.66 85.98
  L 44.25 81.57
  A 1.86 1.86 0.0 0 0 41.47 83.94
  L 48.38 95.92
  A 0.72 0.72 0.0 0 0 49.36 96.18
  L 50.73 95.39
  A 0.73 0.73 0.0 0 0 51.00 94.40
  L 47.63 88.57
  A 0.19 0.18 -85.9 0 1 47.90 88.33"
/>
<path stroke="#76877e" vector-effect="non-scaling-stroke" d="
  M 253.31 87.24
  L 254.47 79.99
  A 0.99 0.99 0.0 0 0 253.99 78.98
  L 252.43 78.08
  A 0.74 0.74 0.0 0 0 251.42 78.35
  L 244.10 91.10
  A 0.73 0.73 0.0 0 0 244.37 92.10
  L 245.71 92.88
  A 0.74 0.73 -59.7 0 0 246.71 92.61
  L 250.05 86.77
  A 0.19 0.19 0.0 0 1 250.40 86.90
  L 249.30 93.79
  A 1.86 1.86 0.0 0 0 252.75 95.00
  L 259.64 83.01
  A 0.72 0.72 0.0 0 0 259.37 82.04
  L 258.00 81.25
  A 0.73 0.73 0.0 0 0 257.01 81.51
  L 253.66 87.35
  A 0.19 0.18 -26.0 0 1 253.31 87.24"
/>
<path stroke="#7a375e" vector-effect="non-scaling-stroke" d="
  M 150.26 232.73
  Q 150.62 231.27 154.23 217.29
  C 158.88 199.27 176.05 187.65 193.85 185.37
  A 2.15 2.15 0.0 0 0 195.64 183.87
  Q 197.33 178.29 196.65 172.31
  C 195.00 157.74 193.26 147.13 196.47 134.24
  A 0.33 0.32 -5.2 0 0 196.02 133.87
  Q 188.99 136.93 185.58 142.53
  A 0.44 0.44 0.0 0 1 184.83 142.54
  L 181.12 136.62
  A 2.81 2.70 -67.8 0 1 180.74 135.66
  Q 177.84 120.10 180.71 105.37
  A 0.34 0.34 0.0 0 0 180.25 104.99
  Q 171.42 108.46 167.82 116.01
  A 0.56 0.56 0.0 0 1 166.85 116.08
  Q 155.13 98.62 150.31 80.59
  A 0.33 0.33 0.0 0 0 149.68 80.55
  Q 142.53 98.73 133.25 116.03
  A 0.59 0.59 0.0 0 1 132.21 116.02
  Q 128.44 108.57 119.56 104.93
  A 0.29 0.29 0.0 0 0 119.16 105.26
  Q 121.98 119.37 119.36 135.09
  A 2.11 2.02 -26.6 0 1 119.11 135.79
  L 115.31 142.46
  A 0.53 0.53 0.0 0 1 114.41 142.50
  Q 110.56 136.97 103.93 133.71
  A 0.37 0.37 0.0 0 0 103.41 134.13
  Q 106.12 144.98 105.08 156.26
  Q 104.49 162.63 103.13 173.56
  Q 102.56 178.20 104.04 183.66
  A 2.50 2.50 0.0 0 0 106.17 185.48
  C 123.17 187.41 140.10 198.82 145.18 215.56
  Q 147.41 222.93 149.64 232.72
  A 0.32 0.32 0.0 0 0 150.26 232.73"
/>
<path stroke="#76877e" vector-effect="non-scaling-stroke" d="
  M 42.03 97.10
  Q 41.08 97.69 41.02 97.70
  A 0.83 0.83 0.0 0 1 40.22 97.32
  L 33.98 87.35
  A 0.58 0.57 -30.7 0 0 33.20 87.16
  L 31.74 88.00
  A 0.53 0.53 0.0 0 0 31.55 88.73
  L 37.89 99.72
  A 2.84 2.84 0.0 0 0 41.78 100.75
  Q 43.07 99.99 43.63 99.64
  Q 44.18 99.29 45.43 98.46
  A 2.84 2.84 0.0 0 0 46.19 94.51
  L 39.04 84.03
  A 0.53 0.53 0.0 0 0 38.30 83.88
  L 36.91 84.83
  A 0.58 0.57 -33.6 0 0 36.74 85.62
  L 43.01 95.57
  A 0.83 0.83 0.0 0 1 43.01 96.45
  Q 42.97 96.51 42.03 97.10"
/>
<path stroke="#76877e" vector-effect="non-scaling-stroke" d="
  M 265.17 90.20
  Q 265.18 91.21 267.02 91.81
  A 0.82 0.80 -66.1 0 0 267.98 91.43
  C 269.93 87.94 266.42 86.39 264.06 85.05
  A 2.72 2.72 0.0 0 0 260.46 85.93
  L 254.74 94.70
  A 2.87 2.87 0.0 0 0 255.57 98.67
  L 258.47 100.56
  A 2.89 2.89 0.0 0 0 262.47 99.72
  L 265.75 94.69
  A 0.68 0.68 0.0 0 0 265.55 93.75
  L 262.55 91.79
  A 0.80 0.80 0.0 0 0 261.45 92.02
  L 260.62 93.29
  A 0.73 0.73 0.0 0 0 260.83 94.30
  L 261.44 94.70
  A 0.65 0.64 33.4 0 1 261.63 95.60
  L 260.47 97.38
  A 0.76 0.75 33.0 0 1 259.42 97.60
  L 257.91 96.62
  A 0.67 0.66 -57.9 0 1 257.71 95.71
  Q 258.53 94.38 262.10 88.84
  A 1.88 1.62 64.6 0 1 265.17 90.20"
/>
<path stroke="#76877e" vector-effect="non-scaling-stroke" d="
  M 84.29 264.17
  Q 69.06 262.24 63.74 260.96
  Q 55.24 258.92 49.88 251.90
  A 0.18 0.18 0.0 0 0 49.57 252.08
  C 55.90 267.41 64.97 281.60 83.07 283.39
  C 88.38 283.91 94.48 284.15 97.71 286.90
  A 0.30 0.29 -31.0 0 1 97.58 287.41
  Q 89.90 289.11 88.18 289.40
  C 80.62 290.70 72.03 287.60 65.45 283.21
  A 0.26 0.25 -2.7 0 0 65.11 283.58
  C 74.48 294.97 87.14 301.95 101.23 305.78
  Q 106.13 307.11 118.97 311.04
  Q 139.38 317.28 148.02 336.52
  A 0.19 0.19 0.0 0 0 148.38 336.45
  C 148.68 304.64 147.68 273.27 140.43 243.31
  C 136.39 226.57 128.25 206.79 113.49 197.73
  Q 99.47 189.13 95.38 186.57
  Q 90.76 183.68 86.84 179.92
  C 75.91 169.43 77.59 153.86 79.90 140.36
  A 0.13 0.13 0.0 0 0 79.66 140.28
  Q 71.35 155.98 67.70 172.19
  C 64.43 186.73 66.34 201.18 77.05 212.20
  Q 80.19 215.43 83.10 218.14
  Q 84.83 219.74 85.66 221.67
  A 0.30 0.29 -87.4 0 1 85.25 222.05
  C 69.17 212.76 54.35 200.03 53.46 180.30
  A 0.18 0.18 0.0 0 0 53.12 180.24
  Q 49.43 189.41 49.09 199.06
  C 48.35 219.89 62.30 229.41 78.81 237.68
  Q 80.57 238.56 81.66 239.89
  A 0.29 0.29 0.0 0 1 81.39 240.36
  C 66.86 237.91 54.63 234.42 46.20 221.46
  A 0.32 0.32 0.0 0 0 45.62 221.69
  Q 49.16 241.95 64.99 253.26
  C 69.46 256.46 76.88 259.36 80.55 261.14
  Q 83.29 262.46 84.53 263.67
  A 0.29 0.29 0.0 0 1 84.29 264.17"
/>
<path stroke="#76877e" vector-effect="non-scaling-stroke" d="
  M 215.57 264.17
  A 0.29 0.29 0.0 0 1 215.33 263.67
  Q 216.57 262.46 219.31 261.14
  C 222.98 259.36 230.40 256.47 234.87 253.27
  Q 250.69 241.97 254.24 221.72
  A 0.32 0.32 0.0 0 0 253.66 221.49
  C 245.23 234.44 233.00 237.92 218.48 240.37
  A 0.29 0.29 0.0 0 1 218.21 239.90
  Q 219.30 238.57 221.06 237.69
  C 237.56 229.43 251.51 219.92 250.77 199.09
  Q 250.44 189.45 246.75 180.28
  A 0.18 0.18 0.0 0 0 246.41 180.34
  C 245.52 200.06 230.70 212.78 214.62 222.07
  A 0.30 0.29 87.4 0 1 214.21 221.69
  Q 215.04 219.76 216.77 218.16
  Q 219.68 215.45 222.82 212.22
  C 233.53 201.21 235.44 186.76 232.18 172.23
  Q 228.53 156.02 220.23 140.33
  A 0.13 0.13 0.0 0 0 219.99 140.41
  C 222.30 153.90 223.97 169.47 213.04 179.95
  Q 209.12 183.71 204.50 186.60
  Q 200.41 189.15 186.40 197.75
  C 171.64 206.80 163.50 226.57 159.46 243.30
  C 152.20 273.25 151.20 304.61 151.49 336.41
  A 0.19 0.19 0.0 0 0 151.85 336.48
  Q 160.49 317.25 180.89 311.01
  Q 193.73 307.09 198.63 305.76
  C 212.71 301.94 225.37 294.96 234.74 283.58
  A 0.26 0.25 2.7 0 0 234.40 283.21
  C 227.82 287.59 219.23 290.69 211.68 289.39
  Q 209.96 289.10 202.28 287.40
  A 0.30 0.29 31.0 0 1 202.15 286.89
  C 205.38 284.14 211.48 283.90 216.79 283.38
  C 234.88 281.60 243.95 267.42 250.28 252.09
  A 0.18 0.18 0.0 0 0 249.97 251.91
  Q 244.61 258.93 236.11 260.97
  Q 230.80 262.24 215.57 264.17"
/>
<path stroke="#967e4e" vector-effect="non-scaling-stroke" d="
  M 263.71 43.04
  Q 264.14 56.17 267.73 69.14"
/>
<path stroke="#7a6139" vector-effect="non-scaling-stroke" d="
  M 253.77 64.06
  L 249.44 41.90"
/>
<path stroke="#d3b75b" vector-effect="non-scaling-stroke" d="
  M 43.13 65.67
  L 38.26 41.27"
/>
<path stroke="#c0a645" vector-effect="non-scaling-stroke" d="
  M 27.10 70.15
  L 21.98 49.91"
/>
<path stroke="#c4ae72" vector-effect="non-scaling-stroke" d="
  M 281.85 51.06
  Q 280.74 58.98 284.46 65.65"
/>
<path stroke="#967e4e" vector-effect="non-scaling-stroke" d="
  M 284.46 65.65
  Q 281.15 70.09 278.03 70.51"
/>
<path stroke="#d3bc67" vector-effect="non-scaling-stroke" d="
  M 20.03 70.49
  L 2.19 53.05"
/>
<path stroke="#76877e" vector-effect="non-scaling-stroke" d="
  M 145.1536 53.5139
  A 0.45 0.45 0.0 0 0 144.6837 53.0848
  L 142.5858 53.1800
  A 0.45 0.45 0.0 0 0 142.1567 53.6500
  L 142.3264 57.3861
  A 0.45 0.45 0.0 0 0 142.7963 57.8152
  L 144.8942 57.7200
  A 0.45 0.45 0.0 0 0 145.3233 57.2500
  L 145.1536 53.5139"
/>
<path stroke="#76877e" vector-effect="non-scaling-stroke" d="
  M 167.7282 54.2647
  A 0.53 0.53 0.0 0 0 167.2384 53.6973
  L 165.2638 53.5523
  A 0.53 0.53 0.0 0 0 164.6964 54.0421
  L 164.5118 56.5553
  A 0.53 0.53 0.0 0 0 165.0016 57.1227
  L 166.9762 57.2677
  A 0.53 0.53 0.0 0 0 167.5436 56.7779
  L 167.7282 54.2647"
/>
<path stroke="#a8915c" vector-effect="non-scaling-stroke" d="
  M 290.04 52.61
  L 290.71 52.64"
/>
<path stroke="#af9862" vector-effect="non-scaling-stroke" d="
  M 296.78 52.98
  Q 297.08 53.34 296.84 53.58
  Q 290.75 59.79 284.46 65.65"
/>
<path stroke="#e6d28c" vector-effect="non-scaling-stroke" d="
  M 20.90 164.81
  Q 20.03 177.41 13.06 189.50
  Q 10.94 193.17 7.79 193.32"
/>
<path stroke="#76877e" vector-effect="non-scaling-stroke" d="
  M 116.62 62.86
  Q 116.94 62.80 117.13 62.65
  A 0.53 0.52 61.2 0 0 117.29 62.06
  Q 116.13 58.88 115.85 58.94
  Q 115.57 58.99 115.69 62.37
  A 0.53 0.52 -83.3 0 0 116.06 62.86
  Q 116.29 62.92 116.62 62.86"
/>
<path stroke="#7a6139" vector-effect="non-scaling-stroke" d="
  M 297.67 143.94
  Q 288.72 169.04 275.35 191.74"
/>
<path stroke="#76877e" vector-effect="non-scaling-stroke" d="
  M 82.3700 66.5122
  A 0.68 0.68 0.0 0 0 81.4956 66.1119
  L 79.8835 66.7114
  A 0.68 0.68 0.0 0 0 79.4832 67.5858
  L 80.2500 69.6478
  A 0.68 0.68 0.0 0 0 81.1244 70.0481
  L 82.7365 69.4486
  A 0.68 0.68 0.0 0 0 83.1368 68.5742
  L 82.3700 66.5122"
/>
<path stroke="#76877e" vector-effect="non-scaling-stroke" d="
  M 219.43 72.92
  Q 219.82 73.09 220.15 72.97
  A 0.46 0.45 -3.4 0 0 220.45 72.64
  Q 221.21 69.53 220.92 69.41
  Q 220.64 69.29 218.92 71.99
  A 0.46 0.45 49.6 0 0 218.89 72.44
  Q 219.04 72.75 219.43 72.92"
/>
<path stroke="#76877e" vector-effect="non-scaling-stroke" d="
  M 233.7597 72.7290
  A 0.67 0.67 0.0 0 0 233.4372 71.8381
  L 231.8615 71.1000
  A 0.67 0.67 0.0 0 0 230.9705 71.4225
  L 230.0203 73.4510
  A 0.67 0.67 0.0 0 0 230.3428 74.3419
  L 231.9185 75.0800
  A 0.67 0.67 0.0 0 0 232.8095 74.7575
  L 233.7597 72.7290"
/>
<path stroke="#76877e" vector-effect="non-scaling-stroke" d="
  M 240.87 82.83
  Q 241.20 83.01 241.50 82.93
  Q 241.78 82.86 241.92 82.51
  Q 243.09 79.54 242.79 79.37
  Q 242.48 79.20 240.58 81.77
  Q 240.36 82.07 240.44 82.34
  Q 240.53 82.64 240.87 82.83"
/>
<path stroke="#7a6139" vector-effect="non-scaling-stroke" d="
  M 171.46 386.80
  Q 180.30 370.82 186.00 353.73"
/>
<path stroke="#ddc477" vector-effect="non-scaling-stroke" d="
  M 42.40 257.97
  Q 41.28 255.66 39.89 254.37
  A 3.25 3.24 -36.6 0 0 36.26 253.84
  Q 30.78 256.52 24.22 257.02"
/>
<path stroke="#d3b75b" vector-effect="non-scaling-stroke" d="
  M 62.07 297.94
  Q 55.10 303.30 46.59 306.06"
/>
<path stroke="#c0a645" vector-effect="non-scaling-stroke" d="
  M 92.98 336.63
  Q 84.06 340.67 75.74 346.05"
/>
<path stroke="#b09434" vector-effect="non-scaling-stroke" d="
  M 111.97 352.18
  L 94.93 364.29"
/>
<path stroke="#947a35" vector-effect="non-scaling-stroke" d="
  M 149.98 372.63
  Q 149.61 372.50 149.98 372.71
  A 0.71 0.70 -75.8 0 1 150.34 373.33
  L 150.15 395.00"
/>
<path stroke="#7a6139" vector-effect="non-scaling-stroke" d="
  M 169.82 363.60
  Q 170.39 363.42 170.81 363.04"
/>
<path stroke="#7a6139" vector-effect="non-scaling-stroke" d="
  M 173.64 361.35
  Q 174.61 361.23 175.10 360.54"
/>
<path stroke="#7a6139" vector-effect="non-scaling-stroke" d="
  M 183.36 355.41
  Q 184.42 355.09 185.09 354.27"
/>
</g>
<g fill="#ddc069">
<path d="
  M 45.37 33.82
  L 58.08 53.58
  Q 56.09 56.22 54.03 58.27
  Q 49.53 62.75 43.13 65.67
  L 38.26 41.27
  L 45.37 33.82
  Z"
/>
<path d="
  M 139.32 51.41
  A 1.27 1.26 -90.0 0 1 140.58 50.14
  L 145.42 50.14
  A 2.62 2.62 0.0 0 1 148.03 52.55
  Q 148.09 53.30 148.35 56.59
  C 148.63 60.08 146.50 61.21 143.44 60.72
  A 0.80 0.80 0.0 0 0 142.51 61.51
  L 142.51 65.70
  A 0.66 0.65 -90.0 0 1 141.86 66.36
  L 140.07 66.36
  A 0.75 0.75 0.0 0 1 139.32 65.61
  L 139.32 51.41
  Z
  M 145.1536 53.5139
  A 0.45 0.45 0.0 0 0 144.6837 53.0848
  L 142.5858 53.1800
  A 0.45 0.45 0.0 0 0 142.1567 53.6500
  L 142.3264 57.3861
  A 0.45 0.45 0.0 0 0 142.7963 57.8152
  L 144.8942 57.7200
  A 0.45 0.45 0.0 0 0 145.3233 57.2500
  L 145.1536 53.5139
  Z"
/>
<path d="
  M 156.31 53.77
  A 1.89 1.62 31.9 0 0 152.98 54.29
  Q 152.97 60.90 152.99 62.47
  A 0.68 0.66 89.4 0 0 153.66 63.13
  L 155.46 63.14
  A 0.76 0.75 0.3 0 0 156.23 62.38
  L 156.25 60.25
  A 0.65 0.65 0.0 0 0 155.60 59.59
  L 154.87 59.59
  A 0.73 0.73 0.0 0 1 154.14 58.85
  L 154.15 57.32
  A 0.80 0.80 0.0 0 1 154.96 56.53
  L 158.55 56.57
  A 0.68 0.68 0.0 0 1 159.23 57.25
  L 159.19 63.27
  A 2.90 2.90 0.0 0 1 156.26 66.15
  L 152.79 66.12
  A 2.88 2.88 0.0 0 1 149.94 63.22
  L 150.02 52.72
  A 2.72 2.72 0.0 0 1 152.58 50.03
  C 155.30 49.88 159.11 49.29 159.35 53.29
  A 0.82 0.80 81.3 0 1 158.74 54.13
  Q 156.87 54.62 156.31 53.77
  Z"
/>
<path d="
  M 169.86 66.54
  A 0.46 0.46 0.0 0 1 169.37 67.11
  L 167.64 66.96
  A 1.03 1.03 0.0 0 1 166.72 66.21
  L 165.20 60.55
  A 0.55 0.53 9.8 0 0 164.98 60.24
  Q 164.83 60.14 164.72 60.14
  Q 164.12 60.16 164.08 60.64
  Q 163.86 63.64 163.68 65.74
  A 0.87 0.86 -85.1 0 1 162.74 66.54
  L 161.29 66.42
  A 0.71 0.71 0.0 0 1 160.65 65.66
  L 161.81 51.81
  A 1.59 1.59 0.0 0 1 163.53 50.36
  L 168.32 50.76
  A 2.67 2.67 0.0 0 1 170.76 53.48
  Q 170.72 55.84 170.48 57.79
  Q 170.35 58.89 168.67 60.00
  A 0.66 0.64 -24.3 0 0 168.40 60.70
  L 169.86 66.54
  Z
  M 167.7282 54.2647
  A 0.53 0.53 0.0 0 0 167.2384 53.6973
  L 165.2638 53.5523
  A 0.53 0.53 0.0 0 0 164.6964 54.0421
  L 164.5118 56.5553
  A 0.53 0.53 0.0 0 0 165.0016 57.1227
  L 166.9762 57.2677
  A 0.53 0.53 0.0 0 0 167.5436 56.7779
  L 167.7282 54.2647
  Z"
/>
<path d="
  M 125.99 57.47
  A 0.86 0.85 -12.0 0 0 127.05 58.15
  Q 130.35 57.25 131.87 59.03
  A 1.64 1.60 -70.7 0 1 132.23 59.80
  Q 132.58 61.77 132.78 64.64
  C 132.97 67.29 128.89 67.79 127.03 67.79
  A 3.03 2.95 53.1 0 1 126.13 67.65
  Q 123.53 66.79 123.77 64.63
  A 1.75 1.45 28.2 0 1 126.58 64.05
  Q 127.45 64.87 129.20 64.44
  A 0.73 0.73 0.0 0 0 129.74 63.62
  L 129.38 61.36
  A 0.62 0.62 0.0 0 0 128.67 60.85
  L 126.17 61.26
  A 2.58 2.57 80.8 0 1 123.23 59.12
  L 122.57 54.99
  A 2.74 2.74 0.0 0 1 124.85 51.85
  L 128.68 51.23
  A 1.15 1.15 0.0 0 1 129.39 51.34
  Q 131.87 52.56 131.67 54.34
  A 1.77 1.52 28.0 0 1 128.78 54.99
  Q 127.78 54.01 126.10 54.73
  A 0.71 0.71 0.0 0 0 125.68 55.50
  L 125.99 57.47
  Z"
/>
<rect x="-1.52" y="-8.08" transform="translate(174.08,59.54) rotate(7.6)" width="3.04" height="16.16" rx="0.56"/>
<path d="
  M 117.24 65.73
  Q 116.55 65.87 116.40 65.90
  A 0.85 0.84 -6.9 0 0 115.74 66.74
  L 115.75 68.99
  A 0.82 0.81 -9.2 0 1 115.17 69.78
  L 113.61 70.24
  A 0.67 0.67 0.0 0 1 112.75 69.60
  L 112.66 54.65
  A 0.81 0.81 0.0 0 1 113.25 53.87
  Q 113.91 53.68 114.74 53.51
  Q 115.56 53.34 116.24 53.25
  A 0.81 0.81 0.0 0 1 117.09 53.74
  L 122.90 67.52
  A 0.67 0.67 0.0 0 1 122.36 68.45
  L 120.74 68.64
  A 0.82 0.81 -14.0 0 1 119.90 68.14
  L 119.03 66.06
  A 0.85 0.84 -16.3 0 0 118.09 65.56
  Q 117.94 65.59 117.24 65.73
  Z
  M 116.62 62.86
  Q 116.94 62.80 117.13 62.65
  A 0.53 0.52 61.2 0 0 117.29 62.06
  Q 116.13 58.88 115.85 58.94
  Q 115.57 58.99 115.69 62.37
  A 0.53 0.52 -83.3 0 0 116.06 62.86
  Q 116.29 62.92 116.62 62.86
  Z"
/>
<path d="
  M 186.02 59.22
  A 0.86 0.85 6.3 0 0 186.81 60.20
  Q 190.23 60.39 191.11 62.56
  A 1.64 1.59 -52.3 0 1 191.20 63.39
  Q 190.92 65.37 190.20 68.16
  C 189.55 70.73 185.52 69.92 183.76 69.34
  A 3.03 2.95 71.5 0 1 182.95 68.92
  Q 180.76 67.29 181.66 65.31
  A 1.75 1.45 46.6 0 1 184.51 65.65
  Q 185.07 66.70 186.87 66.84
  A 0.73 0.73 0.0 0 0 187.64 66.24
  L 188.01 63.98
  A 0.62 0.62 0.0 0 0 187.50 63.28
  L 185.00 62.87
  A 2.58 2.57 -80.8 0 1 182.88 59.92
  L 183.56 55.80
  A 2.74 2.74 0.0 0 1 186.71 53.54
  L 190.54 54.15
  A 1.15 1.15 0.0 0 1 191.17 54.48
  Q 193.15 56.42 192.39 58.04
  A 1.77 1.52 46.3 0 1 189.45 57.75
  Q 188.80 56.51 186.99 56.66
  A 0.71 0.71 0.0 0 0 186.35 57.26
  L 186.02 59.22
  Z"
/>
<path d="
  M 109.77 71.10
  Q 109.19 71.24 108.77 71.33
  A 0.70 0.70 0.0 0 1 107.93 70.79
  L 105.59 59.29
  A 0.61 0.61 0.0 0 0 104.87 58.81
  L 103.15 59.16
  A 0.87 0.87 0.0 0 1 102.13 58.48
  L 101.86 57.18
  A 0.79 0.79 0.0 0 1 102.43 56.26
  Q 103.01 56.10 106.00 55.38
  Q 108.99 54.66 109.58 54.54
  A 0.79 0.79 0.0 0 1 110.50 55.11
  L 110.85 56.39
  A 0.87 0.87 0.0 0 1 110.25 57.46
  L 108.56 57.92
  A 0.61 0.61 0.0 0 0 108.14 58.68
  L 111.27 69.99
  A 0.70 0.70 0.0 0 1 110.77 70.85
  Q 110.35 70.96 109.77 71.10
  Z"
/>
<path d="
  M 193.06 63.06
  Q 194.64 56.64 194.86 55.78
  A 0.32 0.32 0.0 0 1 195.23 55.54
  L 201.84 56.68
  A 0.67 0.66 -80.3 0 1 202.37 57.44
  L 202.07 59.18
  A 0.70 0.69 9.6 0 1 201.27 59.75
  L 197.74 59.15
  A 0.73 0.73 0.0 0 0 196.90 59.75
  L 196.55 61.75
  A 0.65 0.65 0.0 0 0 197.05 62.49
  L 199.56 63.06
  A 0.78 0.78 0.0 0 1 200.16 63.78
  Q 200.17 63.95 199.96 64.78
  Q 199.77 65.58 199.67 65.73
  A 0.78 0.78 0.0 0 1 198.81 66.09
  L 196.32 65.42
  A 0.65 0.65 0.0 0 0 195.54 65.84
  L 194.92 67.78
  A 0.73 0.73 0.0 0 0 195.37 68.69
  L 198.78 69.81
  A 0.70 0.69 18.2 0 1 199.22 70.69
  L 198.68 72.37
  A 0.67 0.66 -71.9 0 1 197.85 72.80
  L 191.47 70.71
  A 0.32 0.32 0.0 0 1 191.25 70.33
  Q 191.47 69.47 193.06 63.06
  Z"
/>
<rect x="-1.53" y="-8.10" transform="translate(100.43,65.17) rotate(-15.9)" width="3.06" height="16.20" rx="0.55"/>
<path d="
  M 208.90 64.16
  C 209.03 64.20 209.29 64.20 209.37 64.11
  Q 212.25 60.94 212.29 60.91
  A 1.16 1.15 -60.8 0 1 213.45 60.58
  L 214.89 60.98
  A 0.64 0.63 -74.1 0 1 215.33 61.78
  L 211.10 75.96
  A 0.75 0.75 0.0 0 1 210.17 76.46
  L 208.44 75.94
  A 0.58 0.57 -73.6 0 1 208.05 75.22
  L 210.19 68.03
  A 0.08 0.08 0.0 0 0 210.07 67.94
  Q 208.62 68.82 207.26 70.76
  Q 207.01 71.12 206.62 70.99
  Q 206.24 70.87 206.26 70.43
  Q 206.33 68.06 205.69 66.49
  A 0.08 0.08 0.0 0 0 205.54 66.49
  L 202.95 73.53
  A 0.58 0.57 -69.7 0 1 202.21 73.87
  L 200.51 73.25
  A 0.75 0.75 0.0 0 1 200.07 72.29
  L 205.16 58.40
  A 0.64 0.63 -69.2 0 1 205.99 58.02
  L 207.39 58.57
  A 1.16 1.15 -82.4 0 1 208.12 59.52
  Q 208.13 59.57 208.54 63.83
  C 208.55 63.95 208.76 64.11 208.90 64.16
  Z"
/>
<path d="
  M 90.97 65.70
  A 0.86 0.85 -23.5 0 0 92.15 66.16
  Q 95.21 64.62 97.05 66.07
  A 1.64 1.60 -82.1 0 1 97.55 66.75
  Q 98.29 68.61 99.05 71.39
  C 99.76 73.95 95.86 75.25 94.04 75.62
  A 3.03 2.95 41.7 0 1 93.13 75.66
  Q 90.41 75.33 90.21 73.16
  A 1.75 1.45 16.8 0 1 92.86 72.04
  Q 93.87 72.67 95.50 71.90
  A 0.73 0.73 0.0 0 0 95.87 70.99
  L 95.07 68.85
  A 0.62 0.62 0.0 0 0 94.27 68.49
  L 91.90 69.38
  A 2.58 2.57 69.4 0 1 88.59 67.87
  L 87.13 63.95
  A 2.74 2.74 0.0 0 1 88.74 60.42
  L 92.38 59.05
  A 1.15 1.15 0.0 0 1 93.09 59.02
  Q 95.77 59.72 95.92 61.51
  A 1.77 1.53 16.5 0 1 93.22 62.72
  Q 92.04 61.96 90.54 62.99
  A 0.71 0.71 0.0 0 0 90.28 63.83
  L 90.97 65.70
  Z"
/>
<path d="
  M 89.48 76.50
  A 0.46 0.46 0.0 0 1 89.28 77.22
  L 87.65 77.83
  A 1.03 1.03 0.0 0 1 86.50 77.54
  L 82.71 73.08
  A 0.55 0.53 -15.6 0 0 82.38 72.90
  Q 82.20 72.87 82.10 72.92
  Q 81.57 73.19 81.74 73.64
  Q 82.82 76.45 83.56 78.42
  A 0.87 0.86 69.6 0 1 83.05 79.54
  L 81.69 80.05
  A 0.71 0.71 0.0 0 1 80.78 79.64
  L 75.92 66.64
  A 1.59 1.59 0.0 0 1 76.85 64.59
  L 81.34 62.91
  A 2.67 2.66 -22.3 0 1 84.71 64.32
  Q 85.68 66.47 86.30 68.33
  Q 86.65 69.38 85.61 71.10
  A 0.66 0.64 -49.6 0 0 85.66 71.85
  L 89.48 76.50
  Z
  M 82.3700 66.5122
  A 0.68 0.68 0.0 0 0 81.4956 66.1119
  L 79.8835 66.7114
  A 0.68 0.68 0.0 0 0 79.4832 67.5858
  L 80.2500 69.6478
  A 0.68 0.68 0.0 0 0 81.1244 70.0481
  L 82.7365 69.4486
  A 0.68 0.68 0.0 0 0 83.1368 68.5742
  L 82.3700 66.5122
  Z"
/>
<path d="
  M 218.26 75.70
  Q 217.59 75.42 217.45 75.36
  A 0.86 0.85 27.2 0 0 216.42 75.69
  L 215.16 77.57
  A 0.83 0.82 24.8 0 1 214.23 77.91
  L 212.67 77.42
  A 0.68 0.67 25.6 0 1 212.31 76.39
  L 220.68 63.86
  A 0.82 0.81 25.8 0 1 221.62 63.53
  Q 222.28 63.75 223.06 64.07
  Q 223.84 64.39 224.46 64.71
  A 0.82 0.81 19.1 0 1 224.89 65.60
  L 221.97 80.38
  A 0.68 0.67 19.3 0 1 220.99 80.85
  L 219.53 80.10
  A 0.83 0.82 20.1 0 1 219.11 79.21
  L 219.55 76.98
  A 0.86 0.85 17.8 0 0 219.05 76.03
  Q 218.91 75.97 218.26 75.70
  Z
  M 219.43 72.92
  Q 219.82 73.09 220.15 72.97
  A 0.46 0.45 -3.4 0 0 220.45 72.64
  Q 221.21 69.53 220.92 69.41
  Q 220.64 69.29 218.92 71.99
  A 0.46 0.45 49.6 0 0 218.89 72.44
  Q 219.04 72.75 219.43 72.92
  Z"
/>
<path d="
  M 75.70 73.71
  Q 76.05 74.46 76.07 74.64
  A 0.78 0.77 -16.1 0 1 75.62 75.45
  L 73.26 76.48
  A 0.65 0.65 0.0 0 0 72.91 77.30
  L 73.63 79.20
  A 0.72 0.72 0.0 0 0 74.56 79.63
  L 77.91 78.38
  A 0.70 0.69 -20.4 0 1 78.81 78.79
  L 79.43 80.44
  A 0.66 0.66 0.0 0 1 79.05 81.29
  L 72.77 83.64
  A 0.32 0.32 0.0 0 1 72.36 83.48
  Q 71.99 82.67 69.24 76.67
  Q 66.48 70.67 66.11 69.87
  A 0.32 0.32 0.0 0 1 66.25 69.45
  L 72.12 66.22
  A 0.66 0.66 0.0 0 1 73.01 66.48
  L 73.86 68.03
  A 0.70 0.69 -29.0 0 1 73.59 68.98
  L 70.46 70.70
  A 0.72 0.72 0.0 0 0 70.18 71.69
  L 71.15 73.47
  A 0.65 0.65 0.0 0 0 72.00 73.74
  L 74.32 72.62
  A 0.78 0.77 -33.3 0 1 75.23 72.81
  Q 75.35 72.94 75.70 73.71
  Z"
/>
<path d="
  M 231.78 84.78
  A 0.46 0.46 0.0 0 1 231.13 85.15
  L 229.55 84.44
  A 1.03 1.02 13.9 0 1 228.93 83.43
  L 229.36 77.61
  A 0.55 0.53 29.0 0 0 229.26 77.25
  Q 229.15 77.11 229.04 77.07
  Q 228.48 76.89 228.28 77.33
  Q 227.08 80.08 226.23 82.00
  A 0.86 0.86 0.0 0 1 225.08 82.44
  L 223.76 81.85
  A 0.70 0.70 0.0 0 1 223.40 80.92
  L 229.05 68.28
  A 1.59 1.59 0.0 0 1 231.15 67.48
  L 235.51 69.43
  A 2.66 2.66 0.0 0 1 236.92 72.79
  Q 236.10 75.00 235.24 76.75
  Q 234.75 77.74 232.81 78.24
  A 0.66 0.64 -5.0 0 0 232.32 78.80
  L 231.78 84.78
  Z
  M 233.7597 72.7290
  A 0.67 0.67 0.0 0 0 233.4372 71.8381
  L 231.8615 71.1000
  A 0.67 0.67 0.0 0 0 230.9705 71.4225
  L 230.0203 73.4510
  A 0.67 0.67 0.0 0 0 230.3428 74.3419
  L 231.9185 75.0800
  A 0.67 0.67 0.0 0 0 232.8095 74.7575
  L 233.7597 72.7290
  Z"
/>
<path d="
  M 66.69 86.79
  Q 66.22 87.03 65.88 87.17
  A 0.86 0.85 -30.4 0 1 64.88 86.92
  L 55.36 75.32
  A 0.64 0.64 0.0 0 1 55.53 74.36
  L 56.83 73.61
  A 0.96 0.96 0.0 0 1 58.05 73.83
  Q 63.17 80.09 63.30 80.03
  Q 63.43 79.96 61.47 72.12
  A 0.96 0.96 0.0 0 1 62.02 71.01
  L 63.40 70.41
  A 0.64 0.64 0.0 0 1 64.27 70.85
  L 67.88 85.41
  A 0.86 0.85 -22.8 0 1 67.48 86.37
  Q 67.16 86.56 66.69 86.79
  Z"
/>
<path d="
  M 245.38 74.34
  Q 246.11 74.73 246.70 75.10
  A 0.81 0.81 0.0 0 1 247.04 76.02
  L 242.77 90.31
  A 0.67 0.67 0.0 0 1 241.76 90.68
  L 240.40 89.80
  A 0.82 0.81 25.5 0 1 240.07 88.88
  L 240.71 86.73
  A 0.85 0.84 23.2 0 0 240.31 85.74
  Q 240.18 85.67 239.56 85.34
  Q 238.92 85.01 238.79 84.94
  A 0.85 0.84 32.6 0 0 237.75 85.16
  L 236.33 86.90
  A 0.82 0.81 30.3 0 1 235.38 87.14
  L 233.89 86.51
  A 0.67 0.67 0.0 0 1 233.63 85.47
  L 243.05 73.91
  A 0.81 0.81 0.0 0 1 244.01 73.68
  Q 244.64 73.95 245.38 74.34
  Z
  M 240.87 82.83
  Q 241.20 83.01 241.50 82.93
  Q 241.78 82.86 241.92 82.51
  Q 243.09 79.54 242.79 79.37
  Q 242.48 79.20 240.58 81.77
  Q 240.36 82.07 240.44 82.34
  Q 240.53 82.64 240.87 82.83
  Z"
/>
<rect x="-1.53" y="-8.09" transform="translate(55.71,83.36) rotate(-28.5)" width="3.06" height="16.18" rx="0.60"/>
<path d="
  M 47.90 88.33
  A 0.19 0.18 -85.9 0 0 47.63 88.57
  L 51.00 94.40
  A 0.73 0.73 0.0 0 1 50.73 95.39
  L 49.36 96.18
  A 0.72 0.72 0.0 0 1 48.38 95.92
  L 41.47 83.94
  A 1.86 1.86 0.0 0 1 44.25 81.57
  L 49.66 85.98
  A 0.19 0.19 0.0 0 0 49.94 85.74
  L 46.57 79.92
  A 0.74 0.73 60.5 0 1 46.84 78.92
  L 48.18 78.15
  A 0.73 0.73 0.0 0 1 49.19 78.42
  L 56.54 91.15
  A 0.74 0.74 0.0 0 1 56.27 92.16
  L 54.71 93.06
  A 0.99 0.99 0.0 0 1 53.59 92.97
  L 47.90 88.33
  Z"
/>
<path d="
  M 253.31 87.24
  A 0.19 0.18 -26.0 0 0 253.66 87.35
  L 257.01 81.51
  A 0.73 0.73 0.0 0 1 258.00 81.25
  L 259.37 82.04
  A 0.72 0.72 0.0 0 1 259.64 83.01
  L 252.75 95.00
  A 1.86 1.86 0.0 0 1 249.30 93.79
  L 250.40 86.90
  A 0.19 0.19 0.0 0 0 250.05 86.77
  L 246.71 92.61
  A 0.74 0.73 -59.7 0 1 245.71 92.88
  L 244.37 92.10
  A 0.73 0.73 0.0 0 1 244.10 91.10
  L 251.42 78.35
  A 0.74 0.74 0.0 0 1 252.43 78.08
  L 253.99 78.98
  A 0.99 0.99 0.0 0 1 254.47 79.99
  L 253.31 87.24
  Z"
/>
<path d="
  M 43.63 99.64
  Q 43.07 99.99 41.78 100.75
  A 2.84 2.84 0.0 0 1 37.89 99.72
  L 31.55 88.73
  A 0.53 0.53 0.0 0 1 31.74 88.00
  L 33.20 87.16
  A 0.58 0.57 -30.7 0 1 33.98 87.35
  L 40.22 97.32
  A 0.83 0.83 0.0 0 0 41.02 97.70
  Q 41.08 97.69 42.03 97.10
  Q 42.97 96.51 43.01 96.45
  A 0.83 0.83 0.0 0 0 43.01 95.57
  L 36.74 85.62
  A 0.58 0.57 -33.6 0 1 36.91 84.83
  L 38.30 83.88
  A 0.53 0.53 0.0 0 1 39.04 84.03
  L 46.19 94.51
  A 2.84 2.84 0.0 0 1 45.43 98.46
  Q 44.18 99.29 43.63 99.64
  Z"
/>
<path d="
  M 265.17 90.20
  A 1.88 1.62 64.6 0 0 262.10 88.84
  Q 258.53 94.38 257.71 95.71
  A 0.67 0.66 -57.9 0 0 257.91 96.62
  L 259.42 97.60
  A 0.76 0.75 33.0 0 0 260.47 97.38
  L 261.63 95.60
  A 0.65 0.64 33.4 0 0 261.44 94.70
  L 260.83 94.30
  A 0.73 0.73 0.0 0 1 260.62 93.29
  L 261.45 92.02
  A 0.80 0.80 0.0 0 1 262.55 91.79
  L 265.55 93.75
  A 0.68 0.68 0.0 0 1 265.75 94.69
  L 262.47 99.72
  A 2.89 2.89 0.0 0 1 258.47 100.56
  L 255.57 98.67
  A 2.87 2.87 0.0 0 1 254.74 94.70
  L 260.46 85.93
  A 2.72 2.72 0.0 0 1 264.06 85.05
  C 266.42 86.39 269.93 87.94 267.98 91.43
  A 0.82 0.80 -66.1 0 1 267.02 91.81
  Q 265.18 91.21 265.17 90.20
  Z"
/>
<path d="
  M 84.53 263.67
  Q 83.29 262.46 80.55 261.14
  C 76.88 259.36 69.46 256.46 64.99 253.26
  Q 49.16 241.95 45.62 221.69
  A 0.32 0.32 0.0 0 1 46.20 221.46
  C 54.63 234.42 66.86 237.91 81.39 240.36
  A 0.29 0.29 0.0 0 0 81.66 239.89
  Q 80.57 238.56 78.81 237.68
  C 62.30 229.41 48.35 219.89 49.09 199.06
  Q 49.43 189.41 53.12 180.24
  A 0.18 0.18 0.0 0 1 53.46 180.30
  C 54.35 200.03 69.17 212.76 85.25 222.05
  A 0.30 0.29 -87.4 0 0 85.66 221.67
  Q 84.83 219.74 83.10 218.14
  Q 80.19 215.43 77.05 212.20
  C 66.34 201.18 64.43 186.73 67.70 172.19
  Q 71.35 155.98 79.66 140.28
  A 0.13 0.13 0.0 0 1 79.90 140.36
  C 77.59 153.86 75.91 169.43 86.84 179.92
  Q 90.76 183.68 95.38 186.57
  Q 99.47 189.13 113.49 197.73
  C 128.25 206.79 136.39 226.57 140.43 243.31
  C 147.68 273.27 148.68 304.64 148.38 336.45
  A 0.19 0.19 0.0 0 1 148.02 336.52
  Q 139.38 317.28 118.97 311.04
  Q 106.13 307.11 101.23 305.78
  C 87.14 301.95 74.48 294.97 65.11 283.58
  A 0.26 0.25 -2.7 0 1 65.45 283.21
  C 72.03 287.60 80.62 290.70 88.18 289.40
  Q 89.90 289.11 97.58 287.41
  A 0.30 0.29 -31.0 0 0 97.71 286.90
  C 94.48 284.15 88.38 283.91 83.07 283.39
  C 64.97 281.60 55.90 267.41 49.57 252.08
  A 0.18 0.18 0.0 0 1 49.88 251.90
  Q 55.24 258.92 63.74 260.96
  Q 69.06 262.24 84.29 264.17
  A 0.29 0.29 0.0 0 0 84.53 263.67
  Z"
/>
<path d="
  M 215.57 264.17
  Q 230.80 262.24 236.11 260.97
  Q 244.61 258.93 249.97 251.91
  A 0.18 0.18 0.0 0 1 250.28 252.09
  C 243.95 267.42 234.88 281.60 216.79 283.38
  C 211.48 283.90 205.38 284.14 202.15 286.89
  A 0.30 0.29 31.0 0 0 202.28 287.40
  Q 209.96 289.10 211.68 289.39
  C 219.23 290.69 227.82 287.59 234.40 283.21
  A 0.26 0.25 2.7 0 1 234.74 283.58
  C 225.37 294.96 212.71 301.94 198.63 305.76
  Q 193.73 307.09 180.89 311.01
  Q 160.49 317.25 151.85 336.48
  A 0.19 0.19 0.0 0 1 151.49 336.41
  C 151.20 304.61 152.20 273.25 159.46 243.30
  C 163.50 226.57 171.64 206.80 186.40 197.75
  Q 200.41 189.15 204.50 186.60
  Q 209.12 183.71 213.04 179.95
  C 223.97 169.47 222.30 153.90 219.99 140.41
  A 0.13 0.13 0.0 0 1 220.23 140.33
  Q 228.53 156.02 232.18 172.23
  C 235.44 186.76 233.53 201.21 222.82 212.22
  Q 219.68 215.45 216.77 218.16
  Q 215.04 219.76 214.21 221.69
  A 0.30 0.29 87.4 0 0 214.62 222.07
  C 230.70 212.78 245.52 200.06 246.41 180.34
  A 0.18 0.18 0.0 0 1 246.75 180.28
  Q 250.44 189.45 250.77 199.09
  C 251.51 219.92 237.56 229.43 221.06 237.69
  Q 219.30 238.57 218.21 239.90
  A 0.29 0.29 0.0 0 0 218.48 240.37
  C 233.00 237.92 245.23 234.44 253.66 221.49
  A 0.32 0.32 0.0 0 1 254.24 221.72
  Q 250.69 241.97 234.87 253.27
  C 230.40 256.47 222.98 259.36 219.31 261.14
  Q 216.57 262.46 215.33 263.67
  A 0.29 0.29 0.0 0 0 215.57 264.17
  Z"
/>
<path d="
  M 42.40 257.97
  Q 50.47 278.89 62.07 297.94
  Q 55.10 303.30 46.59 306.06
  Q 33.16 282.72 24.22 257.02
  Q 30.78 256.52 36.26 253.84
  A 3.25 3.24 -36.6 0 1 39.89 254.37
  Q 41.28 255.66 42.40 257.97
  Z"
/>
</g>
<g fill="#0e4d92">
<path d="
  M 132.66 24.37
  Q 134.75 30.20 138.67 34.84
  Q 143.13 40.12 149.95 40.42
  Q 156.43 39.98 160.61 35.11
  Q 163.58 31.85 165.01 28.52
  L 166.34 25.72
  L 166.66 24.97
  A 0.75 0.73 -76.0 0 1 167.41 24.51
  Q 177.87 25.41 187.99 28.30
  Q 216.58 36.96 241.78 53.61
  Q 246.51 60.10 253.77 64.06
  Q 260.33 67.65 267.73 69.14
  L 278.03 70.51
  Q 279.72 69.98 279.89 71.96
  Q 284.99 132.15 275.35 191.74
  C 264.99 253.48 239.51 316.80 186.00 353.73
  L 185.09 354.27
  Q 184.05 354.63 183.36 355.41
  L 175.10 360.54
  Q 174.19 360.83 173.64 361.35
  L 170.81 363.04
  Q 170.05 363.06 169.82 363.60
  Q 159.98 368.90 149.98 372.63
  Q 129.47 364.55 111.97 352.18
  Q 101.93 345.05 92.98 336.63
  Q 75.14 319.26 62.07 297.94
  Q 50.47 278.89 42.40 257.97
  C 30.87 228.37 24.03 196.34 20.90 164.81
  Q 15.84 118.02 20.03 70.49
  L 27.10 70.15
  Q 35.51 69.24 43.13 65.67
  Q 49.53 62.75 54.03 58.27
  Q 56.09 56.22 58.08 53.58
  Q 72.88 44.04 87.72 37.31
  C 102.08 30.80 116.80 26.06 132.66 24.37
  Z
  M 139.32 51.41
  L 139.32 65.61
  A 0.75 0.75 0.0 0 0 140.07 66.36
  L 141.86 66.36
  A 0.66 0.65 -90.0 0 0 142.51 65.70
  L 142.51 61.51
  A 0.80 0.80 0.0 0 1 143.44 60.72
  C 146.50 61.21 148.63 60.08 148.35 56.59
  Q 148.09 53.30 148.03 52.55
  A 2.62 2.62 0.0 0 0 145.42 50.14
  L 140.58 50.14
  A 1.27 1.26 -90.0 0 0 139.32 51.41
  Z
  M 156.31 53.77
  Q 156.87 54.62 158.74 54.13
  A 0.82 0.80 81.3 0 0 159.35 53.29
  C 159.11 49.29 155.30 49.88 152.58 50.03
  A 2.72 2.72 0.0 0 0 150.02 52.72
  L 149.94 63.22
  A 2.88 2.88 0.0 0 0 152.79 66.12
  L 156.26 66.15
  A 2.90 2.90 0.0 0 0 159.19 63.27
  L 159.23 57.25
  A 0.68 0.68 0.0 0 0 158.55 56.57
  L 154.96 56.53
  A 0.80 0.80 0.0 0 0 154.15 57.32
  L 154.14 58.85
  A 0.73 0.73 0.0 0 0 154.87 59.59
  L 155.60 59.59
  A 0.65 0.65 0.0 0 1 156.25 60.25
  L 156.23 62.38
  A 0.76 0.75 0.3 0 1 155.46 63.14
  L 153.66 63.13
  A 0.68 0.66 89.4 0 1 152.99 62.47
  Q 152.97 60.90 152.98 54.29
  A 1.89 1.62 31.9 0 1 156.31 53.77
  Z
  M 169.86 66.54
  L 168.40 60.70
  A 0.66 0.64 -24.3 0 1 168.67 60.00
  Q 170.35 58.89 170.48 57.79
  Q 170.72 55.84 170.76 53.48
  A 2.67 2.67 0.0 0 0 168.32 50.76
  L 163.53 50.36
  A 1.59 1.59 0.0 0 0 161.81 51.81
  L 160.65 65.66
  A 0.71 0.71 0.0 0 0 161.29 66.42
  L 162.74 66.54
  A 0.87 0.86 -85.1 0 0 163.68 65.74
  Q 163.86 63.64 164.08 60.64
  Q 164.12 60.16 164.72 60.14
  Q 164.83 60.14 164.98 60.24
  A 0.55 0.53 9.8 0 1 165.20 60.55
  L 166.72 66.21
  A 1.03 1.03 0.0 0 0 167.64 66.96
  L 169.37 67.11
  A 0.46 0.46 0.0 0 0 169.86 66.54
  Z
  M 125.99 57.47
  L 125.68 55.50
  A 0.71 0.71 0.0 0 1 126.10 54.73
  Q 127.78 54.01 128.78 54.99
  A 1.77 1.52 28.0 0 0 131.67 54.34
  Q 131.87 52.56 129.39 51.34
  A 1.15 1.15 0.0 0 0 128.68 51.23
  L 124.85 51.85
  A 2.74 2.74 0.0 0 0 122.57 54.99
  L 123.23 59.12
  A 2.58 2.57 80.8 0 0 126.17 61.26
  L 128.67 60.85
  A 0.62 0.62 0.0 0 1 129.38 61.36
  L 129.74 63.62
  A 0.73 0.73 0.0 0 1 129.20 64.44
  Q 127.45 64.87 126.58 64.05
  A 1.75 1.45 28.2 0 0 123.77 64.63
  Q 123.53 66.79 126.13 67.65
  A 3.03 2.95 53.1 0 0 127.03 67.79
  C 128.89 67.79 132.97 67.29 132.78 64.64
  Q 132.58 61.77 132.23 59.80
  A 1.64 1.60 -70.7 0 0 131.87 59.03
  Q 130.35 57.25 127.05 58.15
  A 0.86 0.85 -12.0 0 1 125.99 57.47
  Z
  M 176.5812 52.2871
  A 0.56 0.56 0.0 0 0 176.1002 51.6579
  L 174.1971 51.4040
  A 0.56 0.56 0.0 0 0 173.5679 51.8850
  L 171.5788 66.7929
  A 0.56 0.56 0.0 0 0 172.0598 67.4221
  L 173.9629 67.6760
  A 0.56 0.56 0.0 0 0 174.5921 67.1950
  L 176.5812 52.2871
  Z
  M 117.24 65.73
  Q 117.94 65.59 118.09 65.56
  A 0.85 0.84 -16.3 0 1 119.03 66.06
  L 119.90 68.14
  A 0.82 0.81 -14.0 0 0 120.74 68.64
  L 122.36 68.45
  A 0.67 0.67 0.0 0 0 122.90 67.52
  L 117.09 53.74
  A 0.81 0.81 0.0 0 0 116.24 53.25
  Q 115.56 53.34 114.74 53.51
  Q 113.91 53.68 113.25 53.87
  A 0.81 0.81 0.0 0 0 112.66 54.65
  L 112.75 69.60
  A 0.67 0.67 0.0 0 0 113.61 70.24
  L 115.17 69.78
  A 0.82 0.81 -9.2 0 0 115.75 68.99
  L 115.74 66.74
  A 0.85 0.84 -6.9 0 1 116.40 65.90
  Q 116.55 65.87 117.24 65.73
  Z
  M 186.02 59.22
  L 186.35 57.26
  A 0.71 0.71 0.0 0 1 186.99 56.66
  Q 188.80 56.51 189.45 57.75
  A 1.77 1.52 46.3 0 0 192.39 58.04
  Q 193.15 56.42 191.17 54.48
  A 1.15 1.15 0.0 0 0 190.54 54.15
  L 186.71 53.54
  A 2.74 2.74 0.0 0 0 183.56 55.80
  L 182.88 59.92
  A 2.58 2.57 -80.8 0 0 185.00 62.87
  L 187.50 63.28
  A 0.62 0.62 0.0 0 1 188.01 63.98
  L 187.64 66.24
  A 0.73 0.73 0.0 0 1 186.87 66.84
  Q 185.07 66.70 184.51 65.65
  A 1.75 1.45 46.6 0 0 181.66 65.31
  Q 180.76 67.29 182.95 68.92
  A 3.03 2.95 71.5 0 0 183.76 69.34
  C 185.52 69.92 189.55 70.73 190.20 68.16
  Q 190.92 65.37 191.20 63.39
  A 1.64 1.59 -52.3 0 0 191.11 62.56
  Q 190.23 60.39 186.81 60.20
  A 0.86 0.85 6.3 0 1 186.02 59.22
  Z
  M 106.00 55.38
  Q 103.01 56.10 102.43 56.26
  A 0.79 0.79 0.0 0 0 101.86 57.18
  L 102.13 58.48
  A 0.87 0.87 0.0 0 0 103.15 59.16
  L 104.87 58.81
  A 0.61 0.61 0.0 0 1 105.59 59.29
  L 107.93 70.79
  A 0.70 0.70 0.0 0 0 108.77 71.33
  Q 109.19 71.24 109.77 71.10
  Q 110.35 70.96 110.77 70.85
  A 0.70 0.70 0.0 0 0 111.27 69.99
  L 108.14 58.68
  A 0.61 0.61 0.0 0 1 108.56 57.92
  L 110.25 57.46
  A 0.87 0.87 0.0 0 0 110.85 56.39
  L 110.50 55.11
  A 0.79 0.79 0.0 0 0 109.58 54.54
  Q 108.99 54.66 106.00 55.38
  Z
  M 193.06 63.06
  Q 191.47 69.47 191.25 70.33
  A 0.32 0.32 0.0 0 0 191.47 70.71
  L 197.85 72.80
  A 0.67 0.66 -71.9 0 0 198.68 72.37
  L 199.22 70.69
  A 0.70 0.69 18.2 0 0 198.78 69.81
  L 195.37 68.69
  A 0.73 0.73 0.0 0 1 194.92 67.78
  L 195.54 65.84
  A 0.65 0.65 0.0 0 1 196.32 65.42
  L 198.81 66.09
  A 0.78 0.78 0.0 0 0 199.67 65.73
  Q 199.77 65.58 199.96 64.78
  Q 200.17 63.95 200.16 63.78
  A 0.78 0.78 0.0 0 0 199.56 63.06
  L 197.05 62.49
  A 0.65 0.65 0.0 0 1 196.55 61.75
  L 196.90 59.75
  A 0.73 0.73 0.0 0 1 197.74 59.15
  L 201.27 59.75
  A 0.70 0.69 9.6 0 0 202.07 59.18
  L 202.37 57.44
  A 0.67 0.66 -80.3 0 0 201.84 56.68
  L 195.23 55.54
  A 0.32 0.32 0.0 0 0 194.86 55.78
  Q 194.64 56.64 193.06 63.06
  Z
  M 99.8331 57.4897
  A 0.55 0.55 0.0 0 0 99.1534 57.1114
  L 97.2684 57.6484
  A 0.55 0.55 0.0 0 0 96.8901 58.3280
  L 101.0269 72.8503
  A 0.55 0.55 0.0 0 0 101.7066 73.2286
  L 103.5916 72.6916
  A 0.55 0.55 0.0 0 0 103.9699 72.0120
  L 99.8331 57.4897
  Z
  M 206.62 70.99
  Q 207.01 71.12 207.26 70.76
  Q 208.62 68.82 210.07 67.94
  A 0.08 0.08 0.0 0 1 210.19 68.03
  L 208.05 75.22
  A 0.58 0.57 -73.6 0 0 208.44 75.94
  L 210.17 76.46
  A 0.75 0.75 0.0 0 0 211.10 75.96
  L 215.33 61.78
  A 0.64 0.63 -74.1 0 0 214.89 60.98
  L 213.45 60.58
  A 1.16 1.15 -60.8 0 0 212.29 60.91
  Q 212.25 60.94 209.37 64.11
  C 209.29 64.20 209.03 64.20 208.90 64.16
  C 208.76 64.11 208.55 63.95 208.54 63.83
  Q 208.13 59.57 208.12 59.52
  A 1.16 1.15 -82.4 0 0 207.39 58.57
  L 205.99 58.02
  A 0.64 0.63 -69.2 0 0 205.16 58.40
  L 200.07 72.29
  A 0.75 0.75 0.0 0 0 200.51 73.25
  L 202.21 73.87
  A 0.58 0.57 -69.7 0 0 202.95 73.53
  L 205.54 66.49
  A 0.08 0.08 0.0 0 1 205.69 66.49
  Q 206.33 68.06 206.26 70.43
  Q 206.24 70.87 206.62 70.99
  Z
  M 90.97 65.70
  L 90.28 63.83
  A 0.71 0.71 0.0 0 1 90.54 62.99
  Q 92.04 61.96 93.22 62.72
  A 1.77 1.53 16.5 0 0 95.92 61.51
  Q 95.77 59.72 93.09 59.02
  A 1.15 1.15 0.0 0 0 92.38 59.05
  L 88.74 60.42
  A 2.74 2.74 0.0 0 0 87.13 63.95
  L 88.59 67.87
  A 2.58 2.57 69.4 0 0 91.90 69.38
  L 94.27 68.49
  A 0.62 0.62 0.0 0 1 95.07 68.85
  L 95.87 70.99
  A 0.73 0.73 0.0 0 1 95.50 71.90
  Q 93.87 72.67 92.86 72.04
  A 1.75 1.45 16.8 0 0 90.21 73.16
  Q 90.41 75.33 93.13 75.66
  A 3.03 2.95 41.7 0 0 94.04 75.62
  C 95.86 75.25 99.76 73.95 99.05 71.39
  Q 98.29 68.61 97.55 66.75
  A 1.64 1.60 -82.1 0 0 97.05 66.07
  Q 95.21 64.62 92.15 66.16
  A 0.86 0.85 -23.5 0 1 90.97 65.70
  Z
  M 89.48 76.50
  L 85.66 71.85
  A 0.66 0.64 -49.6 0 1 85.61 71.10
  Q 86.65 69.38 86.30 68.33
  Q 85.68 66.47 84.71 64.32
  A 2.67 2.66 -22.3 0 0 81.34 62.91
  L 76.85 64.59
  A 1.59 1.59 0.0 0 0 75.92 66.64
  L 80.78 79.64
  A 0.71 0.71 0.0 0 0 81.69 80.05
  L 83.05 79.54
  A 0.87 0.86 69.6 0 0 83.56 78.42
  Q 82.82 76.45 81.74 73.64
  Q 81.57 73.19 82.10 72.92
  Q 82.20 72.87 82.38 72.90
  A 0.55 0.53 -15.6 0 1 82.71 73.08
  L 86.50 77.54
  A 1.03 1.03 0.0 0 0 87.65 77.83
  L 89.28 77.22
  A 0.46 0.46 0.0 0 0 89.48 76.50
  Z
  M 218.26 75.70
  Q 218.91 75.97 219.05 76.03
  A 0.86 0.85 17.8 0 1 219.55 76.98
  L 219.11 79.21
  A 0.83 0.82 20.1 0 0 219.53 80.10
  L 220.99 80.85
  A 0.68 0.67 19.3 0 0 221.97 80.38
  L 224.89 65.60
  A 0.82 0.81 19.1 0 0 224.46 64.71
  Q 223.84 64.39 223.06 64.07
  Q 222.28 63.75 221.62 63.53
  A 0.82 0.81 25.8 0 0 220.68 63.86
  L 212.31 76.39
  A 0.68 0.67 25.6 0 0 212.67 77.42
  L 214.23 77.91
  A 0.83 0.82 24.8 0 0 215.16 77.57
  L 216.42 75.69
  A 0.86 0.85 27.2 0 1 217.45 75.36
  Q 217.59 75.42 218.26 75.70
  Z
  M 69.24 76.67
  Q 71.99 82.67 72.36 83.48
  A 0.32 0.32 0.0 0 0 72.77 83.64
  L 79.05 81.29
  A 0.66 0.66 0.0 0 0 79.43 80.44
  L 78.81 78.79
  A 0.70 0.69 -20.4 0 0 77.91 78.38
  L 74.56 79.63
  A 0.72 0.72 0.0 0 1 73.63 79.20
  L 72.91 77.30
  A 0.65 0.65 0.0 0 1 73.26 76.48
  L 75.62 75.45
  A 0.78 0.77 -16.1 0 0 76.07 74.64
  Q 76.05 74.46 75.70 73.71
  Q 75.35 72.94 75.23 72.81
  A 0.78 0.77 -33.3 0 0 74.32 72.62
  L 72.00 73.74
  A 0.65 0.65 0.0 0 1 71.15 73.47
  L 70.18 71.69
  A 0.72 0.72 0.0 0 1 70.46 70.70
  L 73.59 68.98
  A 0.70 0.69 -29.0 0 0 73.86 68.03
  L 73.01 66.48
  A 0.66 0.66 0.0 0 0 72.12 66.22
  L 66.25 69.45
  A 0.32 0.32 0.0 0 0 66.11 69.87
  Q 66.48 70.67 69.24 76.67
  Z
  M 231.78 84.78
  L 232.32 78.80
  A 0.66 0.64 -5.0 0 1 232.81 78.24
  Q 234.75 77.74 235.24 76.75
  Q 236.10 75.00 236.92 72.79
  A 2.66 2.66 0.0 0 0 235.51 69.43
  L 231.15 67.48
  A 1.59 1.59 0.0 0 0 229.05 68.28
  L 223.40 80.92
  A 0.70 0.70 0.0 0 0 223.76 81.85
  L 225.08 82.44
  A 0.86 0.86 0.0 0 0 226.23 82.00
  Q 227.08 80.08 228.28 77.33
  Q 228.48 76.89 229.04 77.07
  Q 229.15 77.11 229.26 77.25
  A 0.55 0.53 29.0 0 1 229.36 77.61
  L 228.93 83.43
  A 1.03 1.02 13.9 0 0 229.55 84.44
  L 231.13 85.15
  A 0.46 0.46 0.0 0 0 231.78 84.78
  Z
  M 63.30 80.03
  Q 63.17 80.09 58.05 73.83
  A 0.96 0.96 0.0 0 0 56.83 73.61
  L 55.53 74.36
  A 0.64 0.64 0.0 0 0 55.36 75.32
  L 64.88 86.92
  A 0.86 0.85 -30.4 0 0 65.88 87.17
  Q 66.22 87.03 66.69 86.79
  Q 67.16 86.56 67.48 86.37
  A 0.86 0.85 -22.8 0 0 67.88 85.41
  L 64.27 70.85
  A 0.64 0.64 0.0 0 0 63.40 70.41
  L 62.02 71.01
  A 0.96 0.96 0.0 0 0 61.47 72.12
  Q 63.43 79.96 63.30 80.03
  Z
  M 239.56 85.34
  Q 240.18 85.67 240.31 85.74
  A 0.85 0.84 23.2 0 1 240.71 86.73
  L 240.07 88.88
  A 0.82 0.81 25.5 0 0 240.40 89.80
  L 241.76 90.68
  A 0.67 0.67 0.0 0 0 242.77 90.31
  L 247.04 76.02
  A 0.81 0.81 0.0 0 0 246.70 75.10
  Q 246.11 74.73 245.38 74.34
  Q 244.64 73.95 244.01 73.68
  A 0.81 0.81 0.0 0 0 243.05 73.91
  L 233.63 85.47
  A 0.67 0.67 0.0 0 0 233.89 86.51
  L 235.38 87.14
  A 0.82 0.81 30.3 0 0 236.33 86.90
  L 237.75 85.16
  A 0.85 0.84 32.6 0 1 238.79 84.94
  Q 238.92 85.01 239.56 85.34
  Z
  M 53.4807 76.0476
  A 0.60 0.60 0.0 0 0 52.6671 75.8066
  L 51.0325 76.6941
  A 0.60 0.60 0.0 0 0 50.7915 77.5077
  L 57.9393 90.6724
  A 0.60 0.60 0.0 0 0 58.7529 90.9134
  L 60.3875 90.0259
  A 0.60 0.60 0.0 0 0 60.6285 89.2123
  L 53.4807 76.0476
  Z
  M 47.90 88.33
  L 53.59 92.97
  A 0.99 0.99 0.0 0 0 54.71 93.06
  L 56.27 92.16
  A 0.74 0.74 0.0 0 0 56.54 91.15
  L 49.19 78.42
  A 0.73 0.73 0.0 0 0 48.18 78.15
  L 46.84 78.92
  A 0.74 0.73 60.5 0 0 46.57 79.92
  L 49.94 85.74
  A 0.19 0.19 0.0 0 1 49.66 85.98
  L 44.25 81.57
  A 1.86 1.86 0.0 0 0 41.47 83.94
  L 48.38 95.92
  A 0.72 0.72 0.0 0 0 49.36 96.18
  L 50.73 95.39
  A 0.73 0.73 0.0 0 0 51.00 94.40
  L 47.63 88.57
  A 0.19 0.18 -85.9 0 1 47.90 88.33
  Z
  M 253.31 87.24
  L 254.47 79.99
  A 0.99 0.99 0.0 0 0 253.99 78.98
  L 252.43 78.08
  A 0.74 0.74 0.0 0 0 251.42 78.35
  L 244.10 91.10
  A 0.73 0.73 0.0 0 0 244.37 92.10
  L 245.71 92.88
  A 0.74 0.73 -59.7 0 0 246.71 92.61
  L 250.05 86.77
  A 0.19 0.19 0.0 0 1 250.40 86.90
  L 249.30 93.79
  A 1.86 1.86 0.0 0 0 252.75 95.00
  L 259.64 83.01
  A 0.72 0.72 0.0 0 0 259.37 82.04
  L 258.00 81.25
  A 0.73 0.73 0.0 0 0 257.01 81.51
  L 253.66 87.35
  A 0.19 0.18 -26.0 0 1 253.31 87.24
  Z
  M 150.26 232.73
  Q 150.62 231.27 154.23 217.29
  C 158.88 199.27 176.05 187.65 193.85 185.37
  A 2.15 2.15 0.0 0 0 195.64 183.87
  Q 197.33 178.29 196.65 172.31
  C 195.00 157.74 193.26 147.13 196.47 134.24
  A 0.33 0.32 -5.2 0 0 196.02 133.87
  Q 188.99 136.93 185.58 142.53
  A 0.44 0.44 0.0 0 1 184.83 142.54
  L 181.12 136.62
  A 2.81 2.70 -67.8 0 1 180.74 135.66
  Q 177.84 120.10 180.71 105.37
  A 0.34 0.34 0.0 0 0 180.25 104.99
  Q 171.42 108.46 167.82 116.01
  A 0.56 0.56 0.0 0 1 166.85 116.08
  Q 155.13 98.62 150.31 80.59
  A 0.33 0.33 0.0 0 0 149.68 80.55
  Q 142.53 98.73 133.25 116.03
  A 0.59 0.59 0.0 0 1 132.21 116.02
  Q 128.44 108.57 119.56 104.93
  A 0.29 0.29 0.0 0 0 119.16 105.26
  Q 121.98 119.37 119.36 135.09
  A 2.11 2.02 -26.6 0 1 119.11 135.79
  L 115.31 142.46
  A 0.53 0.53 0.0 0 1 114.41 142.50
  Q 110.56 136.97 103.93 133.71
  A 0.37 0.37 0.0 0 0 103.41 134.13
  Q 106.12 144.98 105.08 156.26
  Q 104.49 162.63 103.13 173.56
  Q 102.56 178.20 104.04 183.66
  A 2.50 2.50 0.0 0 0 106.17 185.48
  C 123.17 187.41 140.10 198.82 145.18 215.56
  Q 147.41 222.93 149.64 232.72
  A 0.32 0.32 0.0 0 0 150.26 232.73
  Z
  M 42.03 97.10
  Q 41.08 97.69 41.02 97.70
  A 0.83 0.83 0.0 0 1 40.22 97.32
  L 33.98 87.35
  A 0.58 0.57 -30.7 0 0 33.20 87.16
  L 31.74 88.00
  A 0.53 0.53 0.0 0 0 31.55 88.73
  L 37.89 99.72
  A 2.84 2.84 0.0 0 0 41.78 100.75
  Q 43.07 99.99 43.63 99.64
  Q 44.18 99.29 45.43 98.46
  A 2.84 2.84 0.0 0 0 46.19 94.51
  L 39.04 84.03
  A 0.53 0.53 0.0 0 0 38.30 83.88
  L 36.91 84.83
  A 0.58 0.57 -33.6 0 0 36.74 85.62
  L 43.01 95.57
  A 0.83 0.83 0.0 0 1 43.01 96.45
  Q 42.97 96.51 42.03 97.10
  Z
  M 265.17 90.20
  Q 265.18 91.21 267.02 91.81
  A 0.82 0.80 -66.1 0 0 267.98 91.43
  C 269.93 87.94 266.42 86.39 264.06 85.05
  A 2.72 2.72 0.0 0 0 260.46 85.93
  L 254.74 94.70
  A 2.87 2.87 0.0 0 0 255.57 98.67
  L 258.47 100.56
  A 2.89 2.89 0.0 0 0 262.47 99.72
  L 265.75 94.69
  A 0.68 0.68 0.0 0 0 265.55 93.75
  L 262.55 91.79
  A 0.80 0.80 0.0 0 0 261.45 92.02
  L 260.62 93.29
  A 0.73 0.73 0.0 0 0 260.83 94.30
  L 261.44 94.70
  A 0.65 0.64 33.4 0 1 261.63 95.60
  L 260.47 97.38
  A 0.76 0.75 33.0 0 1 259.42 97.60
  L 257.91 96.62
  A 0.67 0.66 -57.9 0 1 257.71 95.71
  Q 258.53 94.38 262.10 88.84
  A 1.88 1.62 64.6 0 1 265.17 90.20
  Z
  M 84.29 264.17
  Q 69.06 262.24 63.74 260.96
  Q 55.24 258.92 49.88 251.90
  A 0.18 0.18 0.0 0 0 49.57 252.08
  C 55.90 267.41 64.97 281.60 83.07 283.39
  C 88.38 283.91 94.48 284.15 97.71 286.90
  A 0.30 0.29 -31.0 0 1 97.58 287.41
  Q 89.90 289.11 88.18 289.40
  C 80.62 290.70 72.03 287.60 65.45 283.21
  A 0.26 0.25 -2.7 0 0 65.11 283.58
  C 74.48 294.97 87.14 301.95 101.23 305.78
  Q 106.13 307.11 118.97 311.04
  Q 139.38 317.28 148.02 336.52
  A 0.19 0.19 0.0 0 0 148.38 336.45
  C 148.68 304.64 147.68 273.27 140.43 243.31
  C 136.39 226.57 128.25 206.79 113.49 197.73
  Q 99.47 189.13 95.38 186.57
  Q 90.76 183.68 86.84 179.92
  C 75.91 169.43 77.59 153.86 79.90 140.36
  A 0.13 0.13 0.0 0 0 79.66 140.28
  Q 71.35 155.98 67.70 172.19
  C 64.43 186.73 66.34 201.18 77.05 212.20
  Q 80.19 215.43 83.10 218.14
  Q 84.83 219.74 85.66 221.67
  A 0.30 0.29 -87.4 0 1 85.25 222.05
  C 69.17 212.76 54.35 200.03 53.46 180.30
  A 0.18 0.18 0.0 0 0 53.12 180.24
  Q 49.43 189.41 49.09 199.06
  C 48.35 219.89 62.30 229.41 78.81 237.68
  Q 80.57 238.56 81.66 239.89
  A 0.29 0.29 0.0 0 1 81.39 240.36
  C 66.86 237.91 54.63 234.42 46.20 221.46
  A 0.32 0.32 0.0 0 0 45.62 221.69
  Q 49.16 241.95 64.99 253.26
  C 69.46 256.46 76.88 259.36 80.55 261.14
  Q 83.29 262.46 84.53 263.67
  A 0.29 0.29 0.0 0 1 84.29 264.17
  Z
  M 215.57 264.17
  A 0.29 0.29 0.0 0 1 215.33 263.67
  Q 216.57 262.46 219.31 261.14
  C 222.98 259.36 230.40 256.47 234.87 253.27
  Q 250.69 241.97 254.24 221.72
  A 0.32 0.32 0.0 0 0 253.66 221.49
  C 245.23 234.44 233.00 237.92 218.48 240.37
  A 0.29 0.29 0.0 0 1 218.21 239.90
  Q 219.30 238.57 221.06 237.69
  C 237.56 229.43 251.51 219.92 250.77 199.09
  Q 250.44 189.45 246.75 180.28
  A 0.18 0.18 0.0 0 0 246.41 180.34
  C 245.52 200.06 230.70 212.78 214.62 222.07
  A 0.30 0.29 87.4 0 1 214.21 221.69
  Q 215.04 219.76 216.77 218.16
  Q 219.68 215.45 222.82 212.22
  C 233.53 201.21 235.44 186.76 232.18 172.23
  Q 228.53 156.02 220.23 140.33
  A 0.13 0.13 0.0 0 0 219.99 140.41
  C 222.30 153.90 223.97 169.47 213.04 179.95
  Q 209.12 183.71 204.50 186.60
  Q 200.41 189.15 186.40 197.75
  C 171.64 206.80 163.50 226.57 159.46 243.30
  C 152.20 273.25 151.20 304.61 151.49 336.41
  A 0.19 0.19 0.0 0 0 151.85 336.48
  Q 160.49 317.25 180.89 311.01
  Q 193.73 307.09 198.63 305.76
  C 212.71 301.94 225.37 294.96 234.74 283.58
  A 0.26 0.25 2.7 0 0 234.40 283.21
  C 227.82 287.59 219.23 290.69 211.68 289.39
  Q 209.96 289.10 202.28 287.40
  A 0.30 0.29 31.0 0 1 202.15 286.89
  C 205.38 284.14 211.48 283.90 216.79 283.38
  C 234.88 281.60 243.95 267.42 250.28 252.09
  A 0.18 0.18 0.0 0 0 249.97 251.91
  Q 244.61 258.93 236.11 260.97
  Q 230.80 262.24 215.57 264.17
  Z"
/>
<rect x="-1.50" y="-2.32" transform="translate(143.74,55.45) rotate(-2.6)" width="3.00" height="4.64" rx="0.45"/>
<rect x="-1.52" y="-1.79" transform="translate(166.12,55.41) rotate(4.2)" width="3.04" height="3.58" rx="0.53"/>
<path d="
  M 115.85 58.94
  Q 116.13 58.88 117.29 62.06
  A 0.53 0.52 61.2 0 1 117.13 62.65
  Q 116.94 62.80 116.62 62.86
  Q 116.29 62.92 116.06 62.86
  A 0.53 0.52 -83.3 0 1 115.69 62.37
  Q 115.57 58.99 115.85 58.94
  Z"
/>
<rect x="-1.54" y="-1.78" transform="translate(81.31,68.08) rotate(-20.4)" width="3.08" height="3.56" rx="0.68"/>
<path d="
  M 220.92 69.41
  Q 221.21 69.53 220.45 72.64
  A 0.46 0.45 -3.4 0 1 220.15 72.97
  Q 219.82 73.09 219.43 72.92
  Q 219.04 72.75 218.89 72.44
  A 0.46 0.45 49.6 0 1 218.92 71.99
  Q 220.64 69.29 220.92 69.41
  Z"
/>
<rect x="-1.54" y="-1.79" transform="translate(231.89,73.09) rotate(25.1)" width="3.08" height="3.58" rx="0.67"/>
<path d="
  M 242.79 79.37
  Q 243.09 79.54 241.92 82.51
  Q 241.78 82.86 241.50 82.93
  Q 241.20 83.01 240.87 82.83
  Q 240.53 82.64 240.44 82.34
  Q 240.36 82.07 240.58 81.77
  Q 242.48 79.20 242.79 79.37
  Z"
/>
</g>
<path fill="#e62129" d="
  M 150.26 232.73
  A 0.32 0.32 0.0 0 1 149.64 232.72
  Q 147.41 222.93 145.18 215.56
  C 140.10 198.82 123.17 187.41 106.17 185.48
  A 2.50 2.50 0.0 0 1 104.04 183.66
  Q 102.56 178.20 103.13 173.56
  Q 104.49 162.63 105.08 156.26
  Q 106.12 144.98 103.41 134.13
  A 0.37 0.37 0.0 0 1 103.93 133.71
  Q 110.56 136.97 114.41 142.50
  A 0.53 0.53 0.0 0 0 115.31 142.46
  L 119.11 135.79
  A 2.11 2.02 -26.6 0 0 119.36 135.09
  Q 121.98 119.37 119.16 105.26
  A 0.29 0.29 0.0 0 1 119.56 104.93
  Q 128.44 108.57 132.21 116.02
  A 0.59 0.59 0.0 0 0 133.25 116.03
  Q 142.53 98.73 149.68 80.55
  A 0.33 0.33 0.0 0 1 150.31 80.59
  Q 155.13 98.62 166.85 116.08
  A 0.56 0.56 0.0 0 0 167.82 116.01
  Q 171.42 108.46 180.25 104.99
  A 0.34 0.34 0.0 0 1 180.71 105.37
  Q 177.84 120.10 180.74 135.66
  A 2.81 2.70 -67.8 0 0 181.12 136.62
  L 184.83 142.54
  A 0.44 0.44 0.0 0 0 185.58 142.53
  Q 188.99 136.93 196.02 133.87
  A 0.33 0.32 -5.2 0 1 196.47 134.24
  C 193.26 147.13 195.00 157.74 196.65 172.31
  Q 197.33 178.29 195.64 183.87
  A 2.15 2.15 0.0 0 1 193.85 185.37
  C 176.05 187.65 158.88 199.27 154.23 217.29
  Q 150.62 231.27 150.26 232.73
  Z"
/>
<g fill="#735933">
<path d="
  M 253.77 64.06
  Q 246.51 60.10 241.78 53.61
  L 249.44 41.90
  L 253.77 64.06
  Z"
/>
<path d="
  M 290.71 52.64
  L 290.04 52.61
  L 290.71 52.64
  Z"
/>
<path d="
  M 297.67 143.94
  Q 297.93 146.99 297.55 151.52
  C 289.88 242.37 257.33 341.18 171.46 386.80
  Q 180.30 370.82 186.00 353.73
  C 239.51 316.80 264.99 253.48 275.35 191.74
  Q 288.72 169.04 297.67 143.94
  Z"
/>
<path d="
  M 185.09 354.27
  Q 184.42 355.09 183.36 355.41
  Q 184.05 354.63 185.09 354.27
  Z"
/>
<path d="
  M 175.10 360.54
  Q 174.61 361.23 173.64 361.35
  Q 174.19 360.83 175.10 360.54
  Z"
/>
<path d="
  M 170.81 363.04
  Q 170.39 363.42 169.82 363.60
  Q 170.05 363.06 170.81 363.04
  Z"
/>
</g>
<g fill="#ab945e">
<path d="
  M 152.72 11.33
  Q 155.79 23.47 160.61 35.11
  Q 156.43 39.98 149.95 40.42
  C 145.42 30.91 142.54 20.77 139.23 10.82
  Q 138.65 9.06 136.94 5.98
  L 137.44 3.44
  Q 138.00 2.13 137.39 0.31
  Q 137.59 0.33 137.79 0.34
  A 0.56 0.56 0.0 0 1 138.31 0.73
  C 140.32 6.93 145.35 13.38 152.72 11.33
  Z"
/>
<path d="
  M 252.78 32.65
  Q 254.21 35.52 249.44 41.90
  L 241.78 53.61
  Q 216.58 36.96 187.99 28.30
  Q 195.54 18.52 199.62 7.01
  Q 226.72 16.06 252.78 32.65
  Z"
/>
<path d="
  M 263.71 43.04
  Q 271.94 48.63 281.85 51.06
  Q 280.74 58.98 284.46 65.65
  Q 281.15 70.09 278.03 70.51
  L 267.73 69.14
  Q 264.14 56.17 263.71 43.04
  Z"
/>
</g>
<g fill="#eedb92">
<path d="
  M 87.72 37.31
  Q 72.88 44.04 58.08 53.58
  L 45.37 33.82
  Q 72.62 15.84 102.99 6.09
  C 101.47 18.17 95.09 28.00 87.72 37.31
  Z"
/>
<path d="
  M 2.19 53.05
  L 20.03 70.49
  Q 15.84 118.02 20.90 164.81
  Q 20.03 177.41 13.06 189.50
  Q 10.94 193.17 7.79 193.32
  Q 0.64 151.01 0.00 108.01
  L 0.00 94.53
  L 2.19 53.05
  Z"
/>
</g>
<g fill="#81683e">
<path d="
  M 149.95 40.42
  Q 143.13 40.12 138.67 34.84
  Q 134.75 30.20 132.66 24.37
  L 136.94 5.98
  Q 138.65 9.06 139.23 10.82
  C 142.54 20.77 145.42 30.91 149.95 40.42
  Z"
/>
<path d="
  M 263.71 43.04
  Q 264.14 56.17 267.73 69.14
  Q 260.33 67.65 253.77 64.06
  L 249.44 41.90
  Q 254.21 35.52 252.78 32.65
  L 263.71 43.04
  Z"
/>
<path d="
  M 298.00 61.39
  L 298.00 142.88
  L 297.67 143.94
  Q 288.72 169.04 275.35 191.74
  Q 284.99 132.15 279.89 71.96
  Q 279.72 69.98 278.03 70.51
  Q 281.15 70.09 284.46 65.65
  Q 290.75 59.79 296.84 53.58
  Q 297.08 53.34 296.78 52.98
  Q 297.66 52.92 297.68 53.50
  Q 297.77 57.45 298.00 61.39
  Z"
/>
<path d="
  M 186.00 353.73
  Q 180.30 370.82 171.46 386.80
  Q 162.71 391.64 153.39 395.00
  L 150.15 395.00
  L 150.34 373.33
  A 0.71 0.70 -75.8 0 0 149.98 372.71
  Q 149.61 372.50 149.98 372.63
  Q 159.98 368.90 169.82 363.60
  Q 170.39 363.42 170.81 363.04
  L 173.64 361.35
  Q 174.61 361.23 175.10 360.54
  L 183.36 355.41
  Q 184.42 355.09 185.09 354.27
  L 186.00 353.73
  Z"
/>
</g>
<path fill="#a78b2b" d="
  M 111.97 352.18
  Q 129.47 364.55 149.98 372.63
  Q 149.61 372.50 149.98 372.71
  A 0.71 0.70 -75.8 0 1 150.34 373.33
  L 150.15 395.00
  L 146.41 395.00
  Q 118.41 383.98 94.93 364.29
  L 111.97 352.18
  Z"
/>
<g fill="#c8ae4d">
<path d="
  M 38.26 41.27
  L 43.13 65.67
  Q 35.51 69.24 27.10 70.15
  L 21.98 49.91
  Q 30.91 47.09 38.26 41.27
  Z"
/>
<path d="
  M 92.98 336.63
  Q 84.06 340.67 75.74 346.05
  Q 59.05 327.70 46.59 306.06
  Q 55.10 303.30 62.07 297.94
  Q 75.14 319.26 92.98 336.63
  Z"
/>
</g>
<g fill="#ddc885">
<path d="
  M 133.46 0.34
  L 136.55 0.69
  A 0.63 0.62 -23.8 0 1 136.79 0.78
  Q 137.71 1.42 137.44 3.44
  L 136.94 5.98
  L 132.66 24.37
  C 116.80 26.06 102.08 30.80 87.72 37.31
  C 95.09 28.00 101.47 18.17 102.99 6.09
  Q 117.91 1.37 133.46 0.34
  Z"
/>
<path d="
  M 161.22 1.73
  Q 161.45 1.70 161.70 1.76
  A 0.90 0.90 0.0 0 1 162.36 2.46
  L 166.51 22.90
  A 2.66 2.59 46.7 0 1 166.49 24.01
  Q 166.27 24.91 166.34 25.72
  L 165.01 28.52
  Q 158.91 18.87 158.23 7.14
  L 161.22 1.73
  Z"
/>
<path d="
  M 290.04 52.61
  L 290.71 52.64
  L 296.78 52.98
  Q 297.08 53.34 296.84 53.58
  Q 290.75 59.79 284.46 65.65
  Q 280.74 58.98 281.85 51.06
  L 290.04 52.61
  Z"
/>
<path d="
  M 42.40 257.97
  Q 41.28 255.66 39.89 254.37
  A 3.25 3.24 -36.6 0 0 36.26 253.84
  Q 30.78 256.52 24.22 257.02
  Q 13.41 225.91 7.79 193.32
  Q 10.94 193.17 13.06 189.50
  Q 20.03 177.41 20.90 164.81
  C 24.03 196.34 30.87 228.37 42.40 257.97
  Z"
/>
</g>
<g fill="#c9b476">
<path d="
  M 137.39 0.31
  Q 138.00 2.13 137.44 3.44
  Q 137.71 1.42 136.79 0.78
  A 0.63 0.62 -23.8 0 0 136.55 0.69
  L 133.46 0.34
  L 137.39 0.31
  Z"
/>
<path d="
  M 199.62 7.01
  Q 195.54 18.52 187.99 28.30
  Q 177.87 25.41 167.41 24.51
  A 0.75 0.73 -76.0 0 0 166.66 24.97
  L 166.34 25.72
  Q 166.27 24.91 166.49 24.01
  A 2.66 2.59 46.7 0 0 166.51 22.90
  L 162.36 2.46
  A 0.90 0.90 0.0 0 0 161.70 1.76
  Q 161.45 1.70 161.22 1.73
  Q 161.38 0.20 163.50 0.29
  Q 182.35 1.12 199.62 7.01
  Z"
/>
<path d="
  M 158.23 7.14
  Q 158.91 18.87 165.01 28.52
  Q 163.58 31.85 160.61 35.11
  Q 155.79 23.47 152.72 11.33
  Q 155.91 10.08 158.23 7.14
  Z"
/>
</g>
<g fill="#b89d3c">
<path d="
  M 21.98 49.91
  L 27.10 70.15
  L 20.03 70.49
  L 2.19 53.05
  Q 12.66 52.82 21.98 49.91
  Z"
/>
<path d="
  M 92.98 336.63
  Q 101.93 345.05 111.97 352.18
  L 94.93 364.29
  Q 84.76 355.84 75.74 346.05
  Q 84.06 340.67 92.98 336.63
  Z"
/>
</g>
</svg>
